<?xml version="1.0" encoding="utf-8"?>
<!-- Generator: Adobe Illustrator 23.0.5, SVG Export Plug-In . SVG Version: 6.00 Build 0)  -->
<svg version="1.1" id="Camada_1" xmlns="http://www.w3.org/2000/svg" xmlns:xlink="http://www.w3.org/1999/xlink" x="0px" y="0px"
	 viewBox="0 0 713.9 897.7" style="enable-background:new 0 0 713.9 897.7;" xml:space="preserve">
<style type="text/css">
	.st0{fill:none;}
	.st1{clip-path:url(#SVGID_2_);fill:url(#SVGID_3_);}
	.st2{fill:#1D1D1B;}
	.st3{clip-path:url(#SVGID_9_);fill:url(#SVGID_10_);}
	.st4{clip-path:url(#SVGID_13_);fill:url(#SVGID_14_);}
	.st5{clip-path:url(#SVGID_16_);fill:url(#SVGID_17_);}
	.st6{fill:url(#SVGID_18_);}
	.st7{fill:url(#SVGID_19_);}
	.st8{fill:url(#SVGID_20_);}
	.st9{fill:url(#SVGID_21_);}
	.st10{fill:url(#SVGID_22_);}
	.st11{clip-path:url(#SVGID_24_);fill:url(#SVGID_25_);}
	.st12{clip-path:url(#SVGID_24_);fill:none;}
	.st13{clip-path:url(#SVGID_27_);fill:url(#SVGID_28_);}
	.st14{fill:url(#SVGID_29_);}
	.st15{fill:url(#SVGID_30_);}
	.st16{fill:url(#SVGID_31_);}
	.st17{fill:url(#SVGID_32_);}
	.st18{fill:url(#SVGID_33_);}
	.st19{fill:url(#SVGID_34_);}
	.st20{fill:url(#SVGID_35_);}
</style>
<path class="st0" d="M447.7,383.3"/>
<g>
	<g>
		<defs>
			<path id="SVGID_1_" d="M450.8,428.9c2.2,3.2,4.8,6.4,7.7,9.6l0,0C455.5,435.2,452.9,431.9,450.8,428.9
				C450.9,428.9,450.9,428.9,450.8,428.9"/>
		</defs>
		<clipPath id="SVGID_2_">
			<use xlink:href="#SVGID_1_"  style="overflow:visible;"/>
		</clipPath>
		
			<linearGradient id="SVGID_3_" gradientUnits="userSpaceOnUse" x1="-771.2391" y1="1076.3347" x2="-769.7178" y2="1076.3347" gradientTransform="matrix(5.0679 0 0 -5.0679 4359.3706 5888.4531)">
			<stop  offset="0" style="stop-color:#0964AD"/>
			<stop  offset="6.968129e-02" style="stop-color:#43578F"/>
			<stop  offset="0.1498" style="stop-color:#7F4A70"/>
			<stop  offset="0.2235" style="stop-color:#AE4057"/>
			<stop  offset="0.2883" style="stop-color:#D03846"/>
			<stop  offset="0.3417" style="stop-color:#E4343B"/>
			<stop  offset="0.3771" style="stop-color:#EC3237"/>
			<stop  offset="0.6944" style="stop-color:#FFF112"/>
			<stop  offset="0.8748" style="stop-color:#3EB870"/>
			<stop  offset="1" style="stop-color:#3EB870"/>
		</linearGradient>
		<rect x="450.8" y="428.9" class="st1" width="7.7" height="9.6"/>
	</g>
	<g>
		<defs>
			<path id="SVGID_4_" d="M451.3,505c-6.9,3.9-4.1,5.8-4.1,5.8l42.3-14.8c-1.3-1.8-2.5-3.5-3.6-4.8
				C479.4,493.3,455.6,502.5,451.3,505"/>
		</defs>
		<clipPath id="SVGID_5_">
			<use xlink:href="#SVGID_4_"  style="overflow:visible;"/>
		</clipPath>
	</g>
	<g>
		<path class="st2" d="M482.6,484.5L482.6,484.5c0.8,0.9,1.6,1.7,2.4,2.6C483.5,485.4,482.6,484.5,482.6,484.5"/>
	</g>
	<g>
		<defs>
			<path id="SVGID_6_" d="M453.3,437.2c-0.1,2.1,1.5,4.3,2.1,6.8c6.6-2.3,14.8-6.4,21-9.9c4.8-2.7-0.5-5.2-0.5-5.2L453.3,437.2z"/>
		</defs>
		<clipPath id="SVGID_7_">
			<use xlink:href="#SVGID_6_"  style="overflow:visible;"/>
		</clipPath>
	</g>
	<g>
		<defs>
			<path id="SVGID_8_" d="M434.9,532.6c-0.1,0.1-0.3,0.1-0.4,0.2c-3.9,1.6-1.3,6.1,3,5.1l63.5-16c2.4-0.6,3.3-2.9,1.7-4.4
				c-0.7-0.6-1.3-1.3-2-1.9c-1-0.9-2.5-1.2-3.9-0.8C482.2,518.4,442.4,529.5,434.9,532.6"/>
		</defs>
		<clipPath id="SVGID_9_">
			<use xlink:href="#SVGID_8_"  style="overflow:visible;"/>
		</clipPath>
		
			<linearGradient id="SVGID_10_" gradientUnits="userSpaceOnUse" x1="-830.2225" y1="1066.3451" x2="-828.1135" y2="1066.3451" gradientTransform="matrix(30.0829 -12.2631 -12.2631 -30.0829 38497.375 22432.6309)">
			<stop  offset="0" style="stop-color:#53BC66"/>
			<stop  offset="0.4121" style="stop-color:#F9B104"/>
		</linearGradient>
		<polygon class="st3" points="407.9,517.9 493.9,495.4 520.1,536.6 434.1,559.1 		"/>
	</g>
	<g>
		<defs>
			<path id="SVGID_11_" d="M444.9,507.6c0,0-0.1,0-0.3,0.1c-0.7,0.6-0.2,2.3,0.9,4.5c15-4.6,29.9-9.2,44.9-13.8
				c-1.1-1.9-2.2-3.8-3.3-5.7C462.6,501.4,445.9,507.4,444.9,507.6z"/>
		</defs>
		<linearGradient id="SVGID_12_" gradientUnits="userSpaceOnUse" x1="444.3192" y1="502.4421" x2="490.4114" y2="502.4421">
			<stop  offset="0" style="stop-color:#44B96E"/>
			<stop  offset="2.370255e-02" style="stop-color:#4BB96B"/>
			<stop  offset="7.138433e-02" style="stop-color:#52BA68"/>
			<stop  offset="0.2039" style="stop-color:#54BA67"/>
			<stop  offset="0.2097" style="stop-color:#5AB865"/>
			<stop  offset="0.2509" style="stop-color:#7EAF56"/>
			<stop  offset="0.2973" style="stop-color:#9EA748"/>
			<stop  offset="0.3485" style="stop-color:#BA9F3D"/>
			<stop  offset="0.4063" style="stop-color:#D09A34"/>
			<stop  offset="0.4739" style="stop-color:#E1952D"/>
			<stop  offset="0.5574" style="stop-color:#EC9229"/>
			<stop  offset="0.6746" style="stop-color:#F39026"/>
			<stop  offset="1" style="stop-color:#F59025"/>
		</linearGradient>
		<use xlink:href="#SVGID_11_"  style="overflow:visible;fill:url(#SVGID_12_);"/>
		<clipPath id="SVGID_13_">
			<use xlink:href="#SVGID_11_"  style="overflow:visible;"/>
		</clipPath>
		<linearGradient id="SVGID_14_" gradientUnits="userSpaceOnUse" x1="426.3735" y1="503.1143" x2="500.3805" y2="503.1143">
			<stop  offset="0" style="stop-color:#5BBE63"/>
			<stop  offset="0.2223" style="stop-color:#5DBD62"/>
			<stop  offset="0.3023" style="stop-color:#64BA5E"/>
			<stop  offset="0.3594" style="stop-color:#6FB457"/>
			<stop  offset="0.4055" style="stop-color:#80AB4D"/>
			<stop  offset="0.4451" style="stop-color:#96A040"/>
			<stop  offset="0.48" style="stop-color:#B2922F"/>
			<stop  offset="0.5109" style="stop-color:#D1831C"/>
			<stop  offset="0.5354" style="stop-color:#F0730A"/>
		</linearGradient>
		<polygon class="st4" points="426.4,495.2 483.1,476.3 500.4,511 443.7,529.9 		"/>
	</g>
	<g>
		<defs>
			<path id="SVGID_15_" d="M441.4,554.3c-11.6,5-7,7.5-6.9,7.5c0,0,0,0,0,0l65.4-17.3c0.8-2.8,1-3.6,1.8-6.4l0,0
				c-1-0.9-2.3-1.3-3.6-0.9C484.9,540.6,448.3,551.4,441.4,554.3"/>
		</defs>
		<clipPath id="SVGID_16_">
			<use xlink:href="#SVGID_15_"  style="overflow:visible;"/>
		</clipPath>
		
			<linearGradient id="SVGID_17_" gradientUnits="userSpaceOnUse" x1="-830.3317" y1="1065.6852" x2="-828.2211" y2="1065.6852" gradientTransform="matrix(30.0829 -12.2631 -12.2631 -30.0829 38497.375 22432.6309)">
			<stop  offset="4.795011e-07" style="stop-color:#4CBB6A"/>
			<stop  offset="0.1505" style="stop-color:#94C53F"/>
			<stop  offset="0.3582" style="stop-color:#FDD301"/>
		</linearGradient>
		<polygon class="st5" points="415.6,541.3 490.3,519.6 513.1,559.3 438.4,580.9 		"/>
	</g>
	<linearGradient id="SVGID_18_" gradientUnits="userSpaceOnUse" x1="488.5838" y1="387.5027" x2="488.801" y2="397.4933">
		<stop  offset="0" style="stop-color:#78C355"/>
		<stop  offset="1" style="stop-color:#78C355"/>
	</linearGradient>
	<path class="st6" d="M497.2,391.3l-16.6,6.3l0.3-2.4l-2.1-1.5l16.6-6.3c0.3-0.1,0.6-0.2,0.9-0.2c0.9,0,1.7,0.5,2.1,1.3
		C498.9,389.7,498.3,390.9,497.2,391.3z"/>
	
		<linearGradient id="SVGID_19_" gradientUnits="userSpaceOnUse" x1="413.2022" y1="424.6589" x2="413.3768" y2="432.6873" gradientTransform="matrix(1.2903 -6.003979e-02 8.961306e-02 1.3228 -79.5948 -134.6489)">
		<stop  offset="0" style="stop-color:#78C355"/>
		<stop  offset="1" style="stop-color:#73C258"/>
	</linearGradient>
	<path class="st7" d="M483.4,413.4l19.3-7.4c1.3-0.5,1.9-1.9,1.4-3l0,0c-0.5-1.2-2-1.7-3.3-1.2l-19.3,7.4c-1.3,0.5-1.9,1.9-1.4,3
		l0,0C480.6,413.3,482.1,413.9,483.4,413.4z"/>
	<linearGradient id="SVGID_20_" gradientUnits="userSpaceOnUse" x1="469.2909" y1="438.9649" x2="467.2133" y2="431.7137">
		<stop  offset="0" style="stop-color:#961F42"/>
		<stop  offset="0.5493" style="stop-color:#86244C"/>
		<stop  offset="1" style="stop-color:#7E2751"/>
	</linearGradient>
	<path class="st8" d="M479.1,434.4l-17.9,6.8c-0.8,0.3-1.8,0-2.1-0.8l-1.2-2.7c-0.3-0.8,0-1.6,0.9-1.9l17.8-6.8l-0.4,3.4
		L479.1,434.4z"/>
	<linearGradient id="SVGID_21_" gradientUnits="userSpaceOnUse" x1="460.7119" y1="423.2299" x2="458.9493" y2="417.0781">
		<stop  offset="8.204796e-07" style="stop-color:#51356D"/>
		<stop  offset="0.4077" style="stop-color:#493872"/>
		<stop  offset="1" style="stop-color:#343F7F"/>
	</linearGradient>
	<path class="st9" d="M470.7,418.6l-19.2,7.3c-0.3,0.1-0.7,0-0.8-0.3l-1.5-3.2c-0.1-0.3,0-0.6,0.3-0.7l19.2-7.3
		c-1.2,0.5-1.8,1.9-1.3,3c0.4,0.9,1.4,1.4,2.4,1.4C470.1,418.7,470.4,418.7,470.7,418.6z"/>
	<path class="st0" d="M497.8,433.1"/>
	<linearGradient id="SVGID_22_" gradientUnits="userSpaceOnUse" x1="484.4061" y1="376.7026" x2="484.4085" y2="376.7288">
		<stop  offset="0" style="stop-color:#78C355"/>
		<stop  offset="1" style="stop-color:#78C355"/>
	</linearGradient>
	<path class="st10" d="M484.5,376.7c-0.1,0-0.1,0-0.2,0"/>
	<path class="st0" d="M490.3,381.6"/>
	<g>
		<defs>
			<path id="SVGID_23_" d="M300.3,137.8c-33.6,30.8-43.1,78.3-33,115.4c1.9,6.8,4.1,12.3,5.3,15c7.1,16.7,20.8,39.4,31.7,60.3
				c1.2,2.4,3.6,7.2,1.4,10c-1.8,2.3-6.6,2.6-13.6,2c-15.4-1.2-28.8-9.3-33.9-12.8c-1.2-0.8-2.4-1.7-3.6-2.6
				c-3.2-2.3,0.3-6.7,3.7-4.7c10,5.8,18.9,10.1,23.9,12.4c2.1,1,4.6-0.4,4.6-2.6c0-6.6-1.9-20.1-14.2-36.4
				c-2.3-3-28.2-31.1-67.9-29.1c-25.9,1.3-52.2,14.2-51.1,22.7c1.1,8.8,31.2,4.1,51.7,25.4c4.3,4.5,8.9,10.9,18.6,16.9
				c9,5.6,18.6,8.6,20,9.1c2.4,0.8,4.9,1.4,7.6,2c10.4,2.2,22,1.5,35.3,7.6c0,0,15.5,5.4,21.1,14.7c1.4,2.2,2.2,4.4,2.8,6.3
				c0,0.1,0,0.2,0,0.3c0,0,0.1,0.3,0.2,0.9c0,0,0,0,0,0.1c6.9,33.5,12,73.4,12,73.4c4.5,35.9,8.2,64.7,9.3,103.7
				c0.5,15.7,0.8,41.9-2.3,74.8c-3.9,41.5-10.2,61-23.3,75.1c-11.2,12.1-26.2,20.8-26.2,20.8c-9.7,5.7-18.2,8.8-22.4,10.2
				c-8.6,2.9-15.2,4.2-25.6,6c-12.4,2.1-15.5,2.2-26.8,4.2c-14.2,2.6-21.3,4-21.3,5.9c-0.1,2.9,15.3,6.3,29.5,6.8
				c14.1,0.4,24.8-2.1,36.5-4.9c21.1-5.1,24.4-9,41-10.8c9.9-1.1,16.7-1.7,24.3,1.4c13,5.3,18.5,17.4,20.5,21.8
				c7.4,16.2,3.2,30.9,8,31.9c2.6,0.5,7-3.1,9.1-5.8c0.2-0.2,0.6-0.8,1.9-2.9c1.2-2,2.1-3.8,4.2-7.6c0,0,1.7-3.3,5.2-9.3
				c3.9-6.5,12.7-14.2,22.9-17.3c4.1-1.3,8.7-1.8,26.4,0.7c20,2.9,24.3,5,35.7,6.7c21.1,3,38,0.3,45.4-1.1
				c22.2-4,43.6-13.1,42.7-16.2c-0.6-2.3-13.6,0.7-38.5,0.7c-26.8,0-44.9-3.4-48.9-4.2c-31.4-6.1-49-17.2-48.9-22.6
				c0-3.4,1.8-6.2,1.8-6.2c1.2-1.9,2.7-3,3.5-3.6c2.6-2,9-6.9,12.2-12.3c1.9-3.3,3.4-8.1,1.9-9.1c-1.9-1.2-6.5,5.6-17,8.9
				c-3.2,1.1-10.1,3.3-15.3,0.9c-6.2-2.9-7.1-11.2-8.3-20.6c-1.8-12.9-4.4-31.4-7.2-53.6c-4.1-32-6.1-47.9-7.4-65.9
				c-2.7-36.5-4-54.8-0.8-74.8c4.7-29.1,10.9-67.5,45.3-89.6c32.3-20.8,92.4-31,117.8,0.9c27.3,34.5,29.8,102.9-2.6,149.1
				c-32.3,46.2-81.4,30.8-87.4,13.4c-6-17.4,8.4-45,31.9-65.4c25.9-22.4,42.1-36.3,45.5-60.9c1.4-9.9-0.4-18.3-2.2-23.9
				c-1.2-3.2-3.5-8.1-8.1-13c-3.7-4-7.2-6.3-8.1-6.8c-8.4-5.2-16.8-5.9-16.9-5.5c-0.1,0.3,3.5,1.8,7.6,5.4c0,0,4,3.3,6.9,6.7
				c6.4,7.5,6.8,17.6,7,22.8c0.5,13.9-4.5,24.7-6.5,28.8c-11.2,22.3-29.7,30.8-45.3,44.4c-22.4,19.6-48.8,58.5-36.7,84.3
				c13.4,28.5,72.7,38.4,113.9,22.1c23.6-9.4,36.3-25.4,44.5-35.8c40.9-51.6,27.5-113.2,24.9-125.6c-4.9-22.8-11.2-51.6-38.6-74.2
				c-28.3-23.3-74.7-30.6-115.3-24.1c-57,9.1-85.1,38.7-92.7,48c-0.8,1-2.5,0.6-2.6-0.6l-0.9-6.6c-0.6-6-0.2-21.4,16.2-32.3
				c25.6-17.1,26.1-17.7,32-22.9c6.9-6.2,14.8-16.4,22.4-39.8c4.2-13.1,10.2-31.5,5.2-33.9c-2.6-1.2-6.9,2.3-11,5.5
				c-35.2,27.4-46.4,23.1-53,39.7c-6.3,15.8-4.8,27.3-3.3,33c0.5,2,3.2,2.7,4.8,1.3c3.3-2.6,8.7-7.1,14.7-12.8
				c2.6-2.4,6.7,0.8,4.5,3.5c-0.1,0.1-0.2,0.2-0.2,0.3c-6.6,7.5-12.7,12.7-18.6,16.7c-1,0.7-2,1.3-3,1.9c-0.1,0.1-0.2,0.1-0.2,0.1
				c-14.7,9-22.7,9-36.4-9.2c-9.6-12.9-15.1-21.7-17.2-33.3c-2.2-11.7-4.5-26.4-5.4-39.7v0c-0.6-9.4-0.5-18.2,0.8-24.9
				c0.4-1.8,3.3-1.7,3.5,0.1c3.6,36.2,16.5,71.6,21,83.2c0.8,2,3.5,2.6,5.2,1.1c11-9.3,31.8-31.2,30.7-58.1
				c-1.1-28.8-21.7-30.5-28.2-62.8c-7.1-35.2,11.8-60.8,2.3-65.9C324,115.9,302.6,135.6,300.3,137.8z"/>
		</defs>
		<clipPath id="SVGID_24_">
			<use xlink:href="#SVGID_23_"  style="overflow:visible;"/>
		</clipPath>
		
			<linearGradient id="SVGID_25_" gradientUnits="userSpaceOnUse" x1="-839.9944" y1="1071.9561" x2="-838.4962" y2="1071.9561" gradientTransform="matrix(6.4111 294.9098 294.9098 -6.4111 -310395.1563 254863.6406)">
			<stop  offset="0" style="stop-color:#95C848"/>
			<stop  offset="0.1594" style="stop-color:#88C64E"/>
			<stop  offset="0.4517" style="stop-color:#67C05D"/>
			<stop  offset="0.8413" style="stop-color:#32B676"/>
			<stop  offset="1" style="stop-color:#1AB281"/>
		</linearGradient>
		<polygon class="st11" points="598.5,65.1 615.4,830.1 109.3,841 92.5,76 		"/>
		<path class="st12" d="M568.3,543.5"/>
		<path class="st12" d="M1427.4,685.4c-346.5,8.5-692.9,16.9-1039.4,25.4"/>
		<path class="st12" d="M714.3,900.6"/>
		<path class="st12" d="M628.8,309.3"/>
	</g>
	<g>
		<defs>
			<path id="SVGID_26_" d="M447.5,452c3.7,4.2,6.1,6.3,14.3,14.1c4.7,4.4,10.5,10.1,17.2,16.7l0,0c0,0,1,1,2.4,2.9
				c0.8,1,1.7,2,2.4,3.1c0,0,0,0-0.1,0c1.4,1.8,2.9,4.1,4.4,6.6l0.2-0.1c2.2,3.6,4.1,7.3,5.7,11.3c0,0,0,0,0,0
				c3.9,9.1,6.2,19.7,3.4,30.1l0.1,0c-0.5,1.8-1.1,3.4-1.8,4.9c0,0,0,0,0,0h0c-6.8,14.5-23.2,18.3-23.2,18.3s39.6-0.7,45.9-38.5
				c4.7-28.2-26-52.3-49.4-76h0c-4.1-4-7.5-7.8-10.5-11.4l0,0c-3.1-3.7-5.9-7.4-8.2-11.2c0,0,0,0,0,0c-5-7.9-6.9-14.9-7.7-19.3
				c-0.8-4.6-1.6-9.6,0.7-15.5c1.1-2.8,2.6-4.9,3.8-6.4c-2,0.8-5.3,2.3-8.5,5.1c-12.8,11.5-10.1,33-4.3,46
				C437.9,441,443.4,447.3,447.5,452z"/>
		</defs>
		<clipPath id="SVGID_27_">
			<use xlink:href="#SVGID_26_"  style="overflow:visible;"/>
		</clipPath>
		
			<linearGradient id="SVGID_28_" gradientUnits="userSpaceOnUse" x1="-839.0957" y1="1073.678" x2="-837.6729" y2="1073.678" gradientTransform="matrix(36.3562 116.7225 116.7225 -36.3562 -94365.4063 137383.9063)">
			<stop  offset="0" style="stop-color:#00509F"/>
			<stop  offset="6.873108e-02" style="stop-color:#393D7C"/>
			<stop  offset="0.1491" style="stop-color:#752A57"/>
			<stop  offset="0.223" style="stop-color:#A41A3A"/>
			<stop  offset="0.2881" style="stop-color:#C60F25"/>
			<stop  offset="0.3416" style="stop-color:#DA0818"/>
			<stop  offset="0.3771" style="stop-color:#E20613"/>
			<stop  offset="0.4272" style="stop-color:#E72A10"/>
			<stop  offset="0.5032" style="stop-color:#ED5B0C"/>
			<stop  offset="0.5814" style="stop-color:#F38408"/>
			<stop  offset="0.6606" style="stop-color:#F7A605"/>
			<stop  offset="0.741" style="stop-color:#FBC003"/>
			<stop  offset="0.823" style="stop-color:#FDD301"/>
			<stop  offset="0.9079" style="stop-color:#FFDE00"/>
			<stop  offset="1" style="stop-color:#FFE200"/>
		</linearGradient>
		<polygon class="st13" points="513.7,350.9 579.9,544 425.9,587.5 359.7,394.5 		"/>
	</g>
	<path class="st0" d="M529.9,587.3"/>
	<path class="st0" d="M533,573.6"/>
	<path class="st0" d="M364.2,751"/>
	<path class="st0" d="M355.4,628.2"/>
	<g>
		
			<linearGradient id="SVGID_29_" gradientUnits="userSpaceOnUse" x1="465.5249" y1="410.0696" x2="464.3931" y2="406.1194" gradientTransform="matrix(0.9686 2.722609e-02 0.1493 1.1626 -60.0955 -80.4768)">
			<stop  offset="0" style="stop-color:#044F9D"/>
			<stop  offset="1" style="stop-color:#00509F"/>
		</linearGradient>
		<path class="st14" d="M444.9,411.3l14.4-5.5c0.8-0.3,1.2-1.2,0.9-1.9l-0.5-1.1c-0.3-0.8-1.3-1.1-2.1-0.8l-14.4,5.5
			c-0.8,0.3-1.2,1.2-0.9,1.9l0.5,1.1C443.1,411.3,444,411.6,444.9,411.3z"/>
		
			<linearGradient id="SVGID_30_" gradientUnits="userSpaceOnUse" x1="361.4802" y1="454.7037" x2="360.9393" y2="451.635" gradientTransform="matrix(1.3722 -0.2149 0.2217 1.3565 -138.115 -133.1032)">
			<stop  offset="0" style="stop-color:#044F9D"/>
			<stop  offset="1" style="stop-color:#00509F"/>
		</linearGradient>
		<polygon class="st15" points="460.2,405.5 457.7,406.4 455.6,404.9 455.9,402.6 458.4,401.6 460.5,403.1 		"/>
	</g>
	<g>
		
			<linearGradient id="SVGID_31_" gradientUnits="userSpaceOnUse" x1="442.4356" y1="408.7867" x2="442.6073" y2="416.6824" gradientTransform="matrix(1.2033 0.1071 0.2686 1.6163 -148.9685 -289.097)">
			<stop  offset="0" style="stop-color:#78C355"/>
			<stop  offset="0.4609" style="stop-color:#70C15A"/>
			<stop  offset="1" style="stop-color:#6FC15A"/>
		</linearGradient>
		<path class="st16" d="M488,431.1l15.3-5.8c1.6-0.6,2.4-2.3,1.7-3.8l-0.1-0.1c-0.7-1.5-2.5-2.1-4.1-1.5l-15.3,5.8
			c-1.6,0.6-2.4,2.3-1.7,3.8l0.1,0.1C484.5,431,486.4,431.7,488,431.1z"/>
		
			<linearGradient id="SVGID_32_" gradientUnits="userSpaceOnUse" x1="301.0715" y1="470.4509" x2="300.5305" y2="467.3814" gradientTransform="matrix(1.9567 -0.3201 0.3378 1.9152 -260.3144 -373.4183)">
			<stop  offset="0" style="stop-color:#6FC15A"/>
			<stop  offset="1" style="stop-color:#70C15A"/>
		</linearGradient>
		<polygon class="st17" points="489.7,430.4 486.2,431.7 483.1,429.7 483.6,426.3 487.1,425 490.2,427 		"/>
	</g>
	<g>
		<linearGradient id="SVGID_33_" gradientUnits="userSpaceOnUse" x1="444.7264" y1="396.2221" x2="443.765" y2="392.8668">
			<stop  offset="8.204796e-07" style="stop-color:#00509F"/>
			<stop  offset="1" style="stop-color:#00509F"/>
		</linearGradient>
		<path class="st18" d="M449.7,393.9l-1.9,0.7l-8,3c-0.2,0.1-0.4,0.1-0.5,0.1c-0.6,0-1.1-0.3-1.3-0.8c-0.3-0.7,0-1.4,0.8-1.7l7.9-3
			l0,0l1.9-0.7c0.2-0.1,0.4-0.1,0.6-0.1c0.6,0,1.1,0.3,1.3,0.8C450.8,392.9,450.5,393.6,449.7,393.9z"/>
		<linearGradient id="SVGID_34_" gradientUnits="userSpaceOnUse" x1="448.6111" y1="394.4039" x2="447.8364" y2="391.7003">
			<stop  offset="8.204796e-07" style="stop-color:#00509F"/>
			<stop  offset="1" style="stop-color:#00509F"/>
		</linearGradient>
		<path class="st19" d="M449.7,393.9l-1.9,0.7c-0.2,0.1-0.4,0.1-0.5,0.1c-0.6,0-1.1-0.3-1.3-0.8c-0.3-0.7,0-1.4,0.8-1.7l0,0l1.9-0.7
			c0.2-0.1,0.4-0.1,0.6-0.1c0.6,0,1.1,0.3,1.3,0.8C450.8,392.9,450.5,393.6,449.7,393.9z"/>
	</g>
	<linearGradient id="SVGID_35_" gradientUnits="userSpaceOnUse" x1="482.2552" y1="382.1789" x2="481.2666" y2="378.7285">
		<stop  offset="8.204796e-07" style="stop-color:#7FC452"/>
		<stop  offset="1" style="stop-color:#7EC453"/>
	</linearGradient>
	<path class="st20" d="M487.9,379.4c0,0.1,0,0.2-0.1,0.2l-11.2,4.2c0.7-0.3,1.1-1.1,0.8-1.7c-0.2-0.5-0.8-0.8-1.3-0.8
		c-0.2,0-0.4,0-0.5,0.1l11.2-4.2c0.1,0,0.2,0,0.2,0.1L487.9,379.4z"/>
	<path class="st0" d="M409.5,675.1c1.1-0.8,2.2-1.6,3.2-2.5"/>
</g>
<path class="st0" d="M432.3,226.7"/>
</svg>
