<?xml version="1.0" encoding="utf-8"?>
<!-- Generator: Adobe Illustrator 23.0.5, SVG Export Plug-In . SVG Version: 6.00 Build 0)  -->
<svg version="1.1" id="Camada_1" xmlns="http://www.w3.org/2000/svg" xmlns:xlink="http://www.w3.org/1999/xlink" x="0px" y="0px"
	 viewBox="0 0 1200 1200" style="enable-background:new 0 0 1200 1200;" xml:space="preserve">
<style type="text/css">
	.st0{fill:#706F6F;}
	.st1{clip-path:url(#SVGID_2_);fill:url(#SVGID_3_);}
	.st2{clip-path:url(#SVGID_5_);fill:url(#SVGID_6_);}
	.st3{clip-path:url(#SVGID_8_);fill:url(#SVGID_9_);}
	.st4{clip-path:url(#SVGID_11_);fill:url(#SVGID_12_);}
	.st5{fill:none;}
	.st6{clip-path:url(#SVGID_14_);fill:url(#SVGID_15_);}
	.st7{fill:#1D1D1B;}
	.st8{clip-path:url(#SVGID_21_);fill:url(#SVGID_22_);}
	.st9{clip-path:url(#SVGID_25_);fill:url(#SVGID_26_);}
	.st10{clip-path:url(#SVGID_28_);fill:url(#SVGID_29_);}
	.st11{fill:url(#SVGID_30_);}
	.st12{fill:url(#SVGID_31_);}
	.st13{fill:url(#SVGID_32_);}
	.st14{fill:url(#SVGID_33_);}
	.st15{fill:url(#SVGID_34_);}
	.st16{clip-path:url(#SVGID_36_);fill:url(#SVGID_37_);}
	.st17{clip-path:url(#SVGID_36_);fill:none;}
	.st18{clip-path:url(#SVGID_39_);fill:url(#SVGID_40_);}
	.st19{fill:url(#SVGID_41_);}
	.st20{fill:url(#SVGID_42_);}
	.st21{fill:url(#SVGID_43_);}
	.st22{fill:url(#SVGID_44_);}
	.st23{fill:url(#SVGID_45_);}
	.st24{fill:url(#SVGID_46_);}
	.st25{fill:url(#SVGID_47_);}
</style>
<g>
	<polygon class="st0" points="676.6,779.7 672.1,779.7 664.6,768.3 664.6,779.7 660,779.7 660,761.2 664.6,761.2 672.1,772.6 
		672.1,761.2 676.6,761.2 	"/>
	<path class="st0" d="M696,765v14.7h-4.5v-2c-0.5,0.7-1.1,1.2-1.9,1.6c-0.8,0.4-1.7,0.6-2.6,0.6c-1.1,0-2.1-0.3-3-0.8
		s-1.5-1.2-2-2.2c-0.5-1-0.7-2.1-0.7-3.4V765h4.5v8c0,1,0.3,1.8,0.8,2.3c0.5,0.5,1.2,0.8,2.1,0.8c0.9,0,1.6-0.3,2.1-0.8
		c0.5-0.5,0.8-1.3,0.8-2.3v-8H696z M691.8,761.3l-6.4,2.7v-3.1l6.4-3.1V761.3z"/>
	<path class="st0" d="M700.9,768.3c0.6-1.1,1.5-2,2.6-2.6c1.1-0.6,2.4-0.9,3.8-0.9c1.8,0,3.4,0.5,4.6,1.5c1.2,1,2.1,2.3,2.4,4.1
		h-4.8c-0.4-1.1-1.2-1.7-2.4-1.7c-0.8,0-1.5,0.3-2,1c-0.5,0.6-0.7,1.6-0.7,2.8c0,1.2,0.2,2.1,0.7,2.8c0.5,0.6,1.2,1,2,1
		c1.2,0,1.9-0.6,2.4-1.7h4.8c-0.4,1.7-1.2,3.1-2.5,4.1c-1.3,1-2.8,1.5-4.6,1.5c-1.4,0-2.7-0.3-3.8-0.9c-1.1-0.6-2-1.5-2.6-2.6
		c-0.6-1.1-0.9-2.5-0.9-4C700,770.8,700.3,769.5,700.9,768.3"/>
	<rect x="718.4" y="760.2" class="st0" width="4.5" height="19.5"/>
	<path class="st0" d="M741.6,773.4h-10.2c0.1,0.9,0.4,1.6,0.9,2.1c0.5,0.5,1.2,0.7,1.9,0.7c1.1,0,1.9-0.5,2.4-1.4h4.8
		c-0.2,1-0.7,1.8-1.3,2.6c-0.6,0.8-1.4,1.4-2.4,1.8c-1,0.4-2,0.7-3.2,0.7c-1.4,0-2.7-0.3-3.9-0.9c-1.1-0.6-2-1.5-2.6-2.6
		c-0.6-1.1-0.9-2.5-0.9-4c0-1.5,0.3-2.9,0.9-4c0.6-1.1,1.5-2,2.6-2.6c1.1-0.6,2.4-0.9,3.9-0.9c1.4,0,2.7,0.3,3.8,0.9
		c1.1,0.6,2,1.5,2.6,2.6c0.6,1.1,0.9,2.4,0.9,3.9C741.7,772.5,741.7,772.9,741.6,773.4 M737.1,770.9c0-0.8-0.3-1.4-0.8-1.8
		c-0.5-0.5-1.2-0.7-2-0.7c-0.8,0-1.4,0.2-1.9,0.7c-0.5,0.4-0.8,1.1-1,1.9H737.1z"/>
	<path class="st0" d="M748.5,779c-1.2-0.6-2.1-1.5-2.7-2.6c-0.7-1.1-1-2.5-1-4c0-1.5,0.3-2.8,1-4c0.7-1.2,1.6-2,2.7-2.7
		c1.2-0.6,2.5-0.9,3.9-0.9c1.4,0,2.7,0.3,3.9,0.9c1.2,0.6,2.1,1.5,2.7,2.7c0.7,1.2,1,2.5,1,4c0,1.5-0.3,2.8-1,4
		c-0.7,1.2-1.6,2-2.8,2.7c-1.2,0.6-2.5,0.9-3.9,0.9C750.9,779.9,749.6,779.6,748.5,779 M754.6,775c0.6-0.6,0.9-1.5,0.9-2.7
		c0-1.2-0.3-2.1-0.9-2.7c-0.6-0.6-1.3-1-2.2-1c-0.9,0-1.6,0.3-2.2,0.9c-0.6,0.6-0.9,1.5-0.9,2.7c0,1.2,0.3,2.1,0.9,2.7
		c0.6,0.6,1.3,1,2.2,1C753.2,776,753.9,775.7,754.6,775"/>
	<path class="st0" d="M771.2,768.3c0.6-1.1,1.3-2,2.3-2.6c1-0.6,2.1-0.9,3.3-0.9c1,0,1.9,0.2,2.7,0.6c0.8,0.4,1.4,1,1.9,1.6v-6.8
		h4.5v19.5h-4.5v-2.1c-0.4,0.7-1,1.3-1.8,1.7c-0.8,0.4-1.7,0.6-2.7,0.6c-1.2,0-2.3-0.3-3.3-0.9c-1-0.6-1.8-1.5-2.3-2.7
		c-0.6-1.2-0.9-2.5-0.9-4C770.3,770.8,770.6,769.5,771.2,768.3 M780.4,769.7c-0.6-0.7-1.4-1-2.3-1c-0.9,0-1.7,0.3-2.3,1
		c-0.6,0.6-0.9,1.5-0.9,2.7c0,1.1,0.3,2,0.9,2.7c0.6,0.7,1.4,1,2.3,1c0.9,0,1.7-0.3,2.3-1c0.6-0.6,0.9-1.5,0.9-2.7
		C781.4,771.2,781.1,770.3,780.4,769.7"/>
	<path class="st0" d="M804.6,773.4h-10.2c0.1,0.9,0.4,1.6,0.9,2.1c0.5,0.5,1.2,0.7,1.9,0.7c1.1,0,1.9-0.5,2.4-1.4h4.8
		c-0.2,1-0.7,1.8-1.3,2.6c-0.6,0.8-1.4,1.4-2.4,1.8c-1,0.4-2,0.7-3.2,0.7c-1.4,0-2.7-0.3-3.9-0.9c-1.1-0.6-2-1.5-2.6-2.6
		c-0.6-1.1-0.9-2.5-0.9-4c0-1.5,0.3-2.9,0.9-4c0.6-1.1,1.5-2,2.6-2.6c1.1-0.6,2.4-0.9,3.9-0.9c1.4,0,2.7,0.3,3.8,0.9
		c1.1,0.6,2,1.5,2.6,2.6c0.6,1.1,0.9,2.4,0.9,3.9C804.6,772.5,804.6,772.9,804.6,773.4 M800,770.9c0-0.8-0.3-1.4-0.8-1.8
		c-0.5-0.5-1.2-0.7-2-0.7c-0.8,0-1.4,0.2-1.9,0.7c-0.5,0.4-0.8,1.1-1,1.9H800z"/>
	<polygon class="st0" points="820.3,764.8 820.3,768.5 826.3,768.5 826.3,772 820.3,772 820.3,776.1 827.1,776.1 827.1,779.7 
		815.8,779.7 815.8,761.2 827.1,761.2 827.1,764.8 	"/>
	<path class="st0" d="M834.2,779.2c-1-0.4-1.8-1-2.4-1.8c-0.6-0.8-0.9-1.6-1-2.6h4.5c0.1,0.5,0.3,0.9,0.7,1.2
		c0.4,0.3,0.9,0.5,1.6,0.5c0.6,0,1-0.1,1.3-0.3c0.3-0.2,0.5-0.5,0.5-0.9c0-0.4-0.2-0.7-0.7-0.9c-0.4-0.2-1.2-0.4-2.1-0.7
		c-1.1-0.2-1.9-0.5-2.6-0.8c-0.7-0.3-1.3-0.7-1.8-1.3c-0.5-0.6-0.8-1.4-0.8-2.4c0-0.8,0.2-1.6,0.7-2.3c0.5-0.7,1.2-1.2,2.1-1.6
		c0.9-0.4,2-0.6,3.2-0.6c1.8,0,3.3,0.5,4.4,1.4c1.1,0.9,1.7,2.1,1.8,3.6h-4.2c-0.1-0.5-0.3-0.9-0.7-1.2c-0.4-0.3-0.9-0.5-1.5-0.5
		c-0.5,0-0.9,0.1-1.2,0.3c-0.3,0.2-0.4,0.5-0.4,0.8c0,0.4,0.2,0.7,0.7,1c0.4,0.2,1.1,0.4,2.1,0.6c1.1,0.3,2,0.6,2.7,0.8
		c0.7,0.3,1.3,0.7,1.8,1.3c0.5,0.6,0.8,1.4,0.8,2.4c0,0.9-0.2,1.6-0.7,2.3c-0.5,0.7-1.2,1.2-2.1,1.6c-0.9,0.4-2,0.6-3.2,0.6
		C836.3,779.9,835.2,779.7,834.2,779.2"/>
	<path class="st0" d="M856.2,775.9v3.8h-2.3c-1.6,0-2.9-0.4-3.8-1.2c-0.9-0.8-1.4-2.1-1.4-3.9v-5.9h-1.8V765h1.8v-3.6h4.5v3.6h3v3.7
		h-3v5.9c0,0.4,0.1,0.8,0.3,1c0.2,0.2,0.6,0.3,1.1,0.3H856.2z"/>
	<path class="st0" d="M874.8,765v14.7h-4.5v-2c-0.5,0.7-1.1,1.2-1.9,1.6c-0.8,0.4-1.6,0.6-2.6,0.6c-1.1,0-2.1-0.3-3-0.8
		c-0.9-0.5-1.5-1.2-2-2.2c-0.5-1-0.7-2.1-0.7-3.4V765h4.5v8c0,1,0.3,1.8,0.8,2.3c0.5,0.5,1.2,0.8,2.1,0.8c0.9,0,1.6-0.3,2.1-0.8
		c0.5-0.5,0.8-1.3,0.8-2.3v-8H874.8z"/>
	<path class="st0" d="M879.6,768.3c0.6-1.1,1.3-2,2.3-2.6c1-0.6,2.1-0.9,3.3-0.9c1,0,1.9,0.2,2.7,0.6c0.8,0.4,1.4,1,1.9,1.6v-6.8
		h4.5v19.5h-4.5v-2.1c-0.4,0.7-1,1.3-1.8,1.7c-0.8,0.4-1.7,0.6-2.7,0.6c-1.2,0-2.3-0.3-3.3-0.9c-1-0.6-1.8-1.5-2.3-2.7
		c-0.6-1.2-0.9-2.5-0.9-4C878.7,770.8,879,769.5,879.6,768.3 M888.8,769.7c-0.6-0.7-1.4-1-2.3-1c-0.9,0-1.7,0.3-2.3,1
		c-0.6,0.6-0.9,1.5-0.9,2.7c0,1.1,0.3,2,0.9,2.7c0.6,0.7,1.4,1,2.3,1c0.9,0,1.7-0.3,2.3-1c0.6-0.6,0.9-1.5,0.9-2.7
		C889.8,771.2,889.5,770.3,888.8,769.7"/>
	<path class="st0" d="M902,779c-1.2-0.6-2.1-1.5-2.7-2.6c-0.7-1.1-1-2.5-1-4c0-1.5,0.3-2.8,1-4c0.7-1.2,1.6-2,2.7-2.7
		c1.2-0.6,2.5-0.9,3.9-0.9c1.4,0,2.7,0.3,3.9,0.9c1.2,0.6,2.1,1.5,2.7,2.7c0.7,1.2,1,2.5,1,4c0,1.5-0.3,2.8-1,4
		c-0.7,1.2-1.6,2-2.8,2.7c-1.2,0.6-2.5,0.9-3.9,0.9C904.4,779.9,903.1,779.6,902,779 M908.1,775c0.6-0.6,0.9-1.5,0.9-2.7
		c0-1.2-0.3-2.1-0.9-2.7c-0.6-0.6-1.3-1-2.2-1c-0.9,0-1.6,0.3-2.2,0.9c-0.6,0.6-0.9,1.5-0.9,2.7c0,1.2,0.3,2.1,0.9,2.7
		c0.6,0.6,1.3,1,2.2,1C906.7,776,907.5,775.7,908.1,775"/>
	<path class="st0" d="M920.1,779.2c-1-0.4-1.8-1-2.4-1.8c-0.6-0.8-0.9-1.6-1-2.6h4.5c0.1,0.5,0.3,0.9,0.7,1.2
		c0.4,0.3,0.9,0.5,1.6,0.5c0.6,0,1-0.1,1.3-0.3c0.3-0.2,0.5-0.5,0.5-0.9c0-0.4-0.2-0.7-0.7-0.9c-0.4-0.2-1.2-0.4-2.1-0.7
		c-1.1-0.2-1.9-0.5-2.6-0.8c-0.7-0.3-1.3-0.7-1.8-1.3c-0.5-0.6-0.8-1.4-0.8-2.4c0-0.8,0.2-1.6,0.7-2.3c0.5-0.7,1.2-1.2,2.1-1.6
		c0.9-0.4,2-0.6,3.2-0.6c1.8,0,3.3,0.5,4.4,1.4c1.1,0.9,1.7,2.1,1.8,3.6h-4.2c-0.1-0.5-0.3-0.9-0.7-1.2c-0.4-0.3-0.9-0.5-1.5-0.5
		c-0.5,0-0.9,0.1-1.2,0.3c-0.3,0.2-0.4,0.5-0.4,0.8c0,0.4,0.2,0.7,0.7,1c0.4,0.2,1.1,0.4,2.1,0.6c1.1,0.3,2,0.6,2.7,0.8
		c0.7,0.3,1.3,0.7,1.8,1.3c0.5,0.6,0.8,1.4,0.8,2.4c0,0.9-0.2,1.6-0.7,2.3c-0.5,0.7-1.2,1.2-2.1,1.6c-0.9,0.4-2,0.6-3.2,0.6
		C922.3,779.9,921.1,779.7,920.1,779.2"/>
	<path class="st0" d="M954.9,773.4h-10.2c0.1,0.9,0.4,1.6,0.9,2.1c0.5,0.5,1.2,0.7,1.9,0.7c1.1,0,1.9-0.5,2.3-1.4h4.8
		c-0.2,1-0.7,1.8-1.3,2.6c-0.6,0.8-1.4,1.4-2.4,1.8c-1,0.4-2.1,0.7-3.2,0.7c-1.4,0-2.7-0.3-3.9-0.9c-1.1-0.6-2-1.5-2.6-2.6
		c-0.6-1.1-0.9-2.5-0.9-4c0-1.5,0.3-2.9,0.9-4c0.6-1.1,1.5-2,2.6-2.6c1.1-0.6,2.4-0.9,3.9-0.9c1.4,0,2.7,0.3,3.8,0.9
		c1.1,0.6,2,1.5,2.6,2.6c0.6,1.1,0.9,2.4,0.9,3.9C954.9,772.5,954.9,772.9,954.9,773.4 M950.3,770.9c0-0.8-0.3-1.4-0.8-1.8
		c-0.5-0.5-1.2-0.7-2-0.7c-0.8,0-1.4,0.2-1.9,0.7c-0.5,0.4-0.8,1.1-1,1.9H950.3z"/>
	<path class="st0" d="M979.5,770.1c-0.5,0.9-1.3,1.6-2.3,2.2c-1,0.5-2.3,0.8-3.8,0.8h-2.8v6.7h-4.5v-18.5h7.3c1.5,0,2.7,0.3,3.7,0.8
		c1,0.5,1.8,1.2,2.3,2.1c0.5,0.9,0.8,1.9,0.8,3.1C980.2,768.2,980,769.2,979.5,770.1 M975,768.8c0.4-0.4,0.6-1,0.6-1.7
		c0-0.7-0.2-1.3-0.6-1.7c-0.4-0.4-1.1-0.6-1.9-0.6h-2.5v4.6h2.5C973.9,769.4,974.6,769.2,975,768.8"/>
	<path class="st0" d="M998,773.4h-10.2c0.1,0.9,0.4,1.6,0.9,2.1c0.5,0.5,1.2,0.7,1.9,0.7c1.1,0,1.9-0.5,2.3-1.4h4.8
		c-0.2,1-0.7,1.8-1.3,2.6c-0.6,0.8-1.4,1.4-2.4,1.8c-1,0.4-2.1,0.7-3.2,0.7c-1.4,0-2.7-0.3-3.9-0.9c-1.1-0.6-2-1.5-2.6-2.6
		c-0.6-1.1-0.9-2.5-0.9-4c0-1.5,0.3-2.9,0.9-4c0.6-1.1,1.5-2,2.6-2.6c1.1-0.6,2.4-0.9,3.9-0.9c1.4,0,2.7,0.3,3.8,0.9
		c1.1,0.6,2,1.5,2.6,2.6c0.6,1.1,0.9,2.4,0.9,3.9C998,772.5,998,772.9,998,773.4 M993.4,770.9c0-0.8-0.3-1.4-0.8-1.8
		c-0.5-0.5-1.2-0.7-2-0.7c-0.8,0-1.4,0.2-1.9,0.7c-0.5,0.4-0.8,1.1-1,1.9H993.4z"/>
	<path class="st0" d="M1004.6,779.2c-1-0.4-1.8-1-2.4-1.8c-0.6-0.8-0.9-1.6-1-2.6h4.5c0.1,0.5,0.3,0.9,0.7,1.2
		c0.4,0.3,0.9,0.5,1.6,0.5c0.6,0,1-0.1,1.3-0.3c0.3-0.2,0.5-0.5,0.5-0.9c0-0.4-0.2-0.7-0.7-0.9c-0.4-0.2-1.2-0.4-2.1-0.7
		c-1.1-0.2-1.9-0.5-2.6-0.8c-0.7-0.3-1.3-0.7-1.8-1.3c-0.5-0.6-0.8-1.4-0.8-2.4c0-0.8,0.2-1.6,0.7-2.3c0.5-0.7,1.2-1.2,2.1-1.6
		c0.9-0.4,2-0.6,3.2-0.6c1.8,0,3.3,0.5,4.4,1.4c1.1,0.9,1.7,2.1,1.8,3.6h-4.2c-0.1-0.5-0.3-0.9-0.7-1.2c-0.4-0.3-0.9-0.5-1.5-0.5
		c-0.5,0-0.9,0.1-1.2,0.3c-0.3,0.2-0.4,0.5-0.4,0.8c0,0.4,0.2,0.7,0.7,1c0.4,0.2,1.1,0.4,2.1,0.6c1.1,0.3,2,0.6,2.7,0.8
		c0.7,0.3,1.3,0.7,1.8,1.3c0.5,0.6,0.8,1.4,0.8,2.4c0,0.9-0.2,1.6-0.7,2.3c-0.5,0.7-1.2,1.2-2.1,1.6c-0.9,0.4-2,0.6-3.2,0.6
		C1006.7,779.9,1005.6,779.7,1004.6,779.2"/>
	<path class="st0" d="M1018.3,768.4c0.6-1.1,1.4-2,2.5-2.7c1-0.6,2.2-1,3.4-1c0.9,0,1.8,0.2,2.5,0.5s1.3,0.8,1.8,1.4V765h4.5v21.8
		h-4.5v-8.9c-0.5,0.6-1.1,1.1-1.9,1.5c-0.7,0.4-1.6,0.6-2.5,0.6c-1.2,0-2.3-0.3-3.3-1c-1-0.6-1.8-1.5-2.4-2.7
		c-0.6-1.1-0.9-2.4-0.9-3.9S1017.7,769.6,1018.3,768.4 M1028,770.3c-0.3-0.5-0.7-0.9-1.2-1.2c-0.5-0.3-1-0.4-1.6-0.4
		c-0.5,0-1,0.1-1.5,0.4c-0.5,0.3-0.9,0.7-1.2,1.2c-0.3,0.5-0.5,1.2-0.5,2c0,0.8,0.2,1.5,0.5,2c0.3,0.5,0.7,0.9,1.2,1.2
		c0.5,0.3,1,0.4,1.5,0.4c0.5,0,1-0.1,1.5-0.4c0.5-0.3,0.9-0.7,1.2-1.2c0.3-0.5,0.5-1.2,0.5-2C1028.5,771.5,1028.3,770.9,1028,770.3"
		/>
	<path class="st0" d="M1052.4,765v14.7h-4.5v-2c-0.5,0.7-1.1,1.2-1.9,1.6c-0.8,0.4-1.6,0.6-2.6,0.6c-1.1,0-2.1-0.3-3-0.8
		c-0.9-0.5-1.5-1.2-2-2.2c-0.5-1-0.7-2.1-0.7-3.4V765h4.5v8c0,1,0.3,1.8,0.8,2.3c0.5,0.5,1.2,0.8,2.1,0.8c0.9,0,1.6-0.3,2.1-0.8
		c0.5-0.5,0.8-1.3,0.8-2.3v-8H1052.4z"/>
	<path class="st0" d="M1057.5,762.7c-0.5-0.5-0.8-1-0.8-1.7c0-0.7,0.3-1.3,0.8-1.8c0.5-0.5,1.1-0.7,1.9-0.7c0.8,0,1.4,0.2,1.9,0.7
		c0.5,0.5,0.8,1.1,0.8,1.8c0,0.7-0.2,1.3-0.8,1.7c-0.5,0.5-1.1,0.7-1.9,0.7C1058.7,763.4,1058,763.2,1057.5,762.7 M1061.7,779.7
		h-4.5V765h4.5V779.7z"/>
	<path class="st0" d="M1069.1,779.2c-1-0.4-1.8-1-2.4-1.8c-0.6-0.8-0.9-1.6-1-2.6h4.5c0.1,0.5,0.3,0.9,0.7,1.2
		c0.4,0.3,0.9,0.5,1.6,0.5c0.6,0,1-0.1,1.3-0.3c0.3-0.2,0.5-0.5,0.5-0.9c0-0.4-0.2-0.7-0.7-0.9c-0.4-0.2-1.2-0.4-2.1-0.7
		c-1.1-0.2-1.9-0.5-2.6-0.8c-0.7-0.3-1.3-0.7-1.8-1.3c-0.5-0.6-0.8-1.4-0.8-2.4c0-0.8,0.2-1.6,0.7-2.3c0.5-0.7,1.2-1.2,2.1-1.6
		c0.9-0.4,2-0.6,3.2-0.6c1.8,0,3.3,0.5,4.4,1.4c1.1,0.9,1.7,2.1,1.8,3.6h-4.2c-0.1-0.5-0.3-0.9-0.7-1.2c-0.4-0.3-0.9-0.5-1.5-0.5
		c-0.5,0-0.9,0.1-1.2,0.3c-0.3,0.2-0.4,0.5-0.4,0.8c0,0.4,0.2,0.7,0.7,1c0.4,0.2,1.1,0.4,2.1,0.6c1.1,0.3,2,0.6,2.7,0.8
		c0.7,0.3,1.3,0.7,1.8,1.3c0.5,0.6,0.8,1.4,0.8,2.4c0,0.9-0.2,1.6-0.7,2.3c-0.5,0.7-1.2,1.2-2.1,1.6c-0.9,0.4-2,0.6-3.2,0.6
		C1071.3,779.9,1070.1,779.7,1069.1,779.2"/>
	<path class="st0" d="M1082.9,768.3c0.6-1.1,1.3-2,2.3-2.6c1-0.6,2.1-0.9,3.3-0.9c1,0,1.9,0.2,2.7,0.6c0.8,0.4,1.4,1,1.8,1.7V765
		h4.5v14.7h-4.5v-2.1c-0.4,0.7-1.1,1.2-1.8,1.7c-0.8,0.4-1.7,0.6-2.7,0.6c-1.2,0-2.3-0.3-3.3-0.9c-1-0.6-1.8-1.5-2.3-2.7
		c-0.6-1.2-0.9-2.5-0.9-4C1082,770.8,1082.3,769.5,1082.9,768.3 M1092.1,769.7c-0.6-0.7-1.4-1-2.3-1c-0.9,0-1.7,0.3-2.3,1
		c-0.6,0.6-0.9,1.5-0.9,2.7c0,1.1,0.3,2,0.9,2.7c0.6,0.7,1.4,1,2.3,1c0.9,0,1.7-0.3,2.3-1c0.6-0.6,0.9-1.5,0.9-2.7
		C1093,771.2,1092.7,770.3,1092.1,769.7"/>
	<path class="st0" d="M1105,779.2c-1-0.4-1.8-1-2.4-1.8c-0.6-0.8-0.9-1.6-1-2.6h4.5c0.1,0.5,0.3,0.9,0.7,1.2
		c0.4,0.3,0.9,0.5,1.6,0.5c0.6,0,1-0.1,1.3-0.3c0.3-0.2,0.5-0.5,0.5-0.9c0-0.4-0.2-0.7-0.7-0.9c-0.4-0.2-1.2-0.4-2.1-0.7
		c-1.1-0.2-1.9-0.5-2.6-0.8c-0.7-0.3-1.3-0.7-1.8-1.3c-0.5-0.6-0.8-1.4-0.8-2.4c0-0.8,0.2-1.6,0.7-2.3c0.5-0.7,1.2-1.2,2.1-1.6
		c0.9-0.4,2-0.6,3.2-0.6c1.8,0,3.3,0.5,4.4,1.4c1.1,0.9,1.7,2.1,1.8,3.6h-4.2c-0.1-0.5-0.3-0.9-0.7-1.2c-0.4-0.3-0.9-0.5-1.5-0.5
		c-0.5,0-0.9,0.1-1.2,0.3c-0.3,0.2-0.4,0.5-0.4,0.8c0,0.4,0.2,0.7,0.7,1c0.4,0.2,1.1,0.4,2.1,0.6c1.1,0.3,2,0.6,2.7,0.8
		c0.7,0.3,1.3,0.7,1.8,1.3c0.5,0.6,0.8,1.4,0.8,2.4c0,0.9-0.2,1.6-0.7,2.3c-0.5,0.7-1.2,1.2-2.1,1.6c-0.9,0.4-2,0.6-3.2,0.6
		C1107.1,779.9,1106,779.7,1105,779.2"/>
	<path class="st0" d="M673.9,798h-10.2c0.1,0.9,0.4,1.6,0.9,2.1c0.5,0.5,1.2,0.7,1.9,0.7c1.1,0,1.9-0.5,2.4-1.4h4.8
		c-0.2,1-0.7,1.8-1.3,2.6c-0.6,0.8-1.4,1.4-2.4,1.8c-1,0.4-2,0.7-3.2,0.7c-1.4,0-2.7-0.3-3.9-0.9c-1.1-0.6-2-1.5-2.6-2.6
		c-0.6-1.1-1-2.5-1-4c0-1.5,0.3-2.9,0.9-4c0.6-1.1,1.5-2,2.6-2.6c1.1-0.6,2.4-0.9,3.9-0.9c1.4,0,2.7,0.3,3.8,0.9
		c1.1,0.6,2,1.5,2.6,2.6c0.6,1.1,0.9,2.4,0.9,3.9C673.9,797.1,673.9,797.5,673.9,798 M669.3,795.5c0-0.8-0.3-1.4-0.8-1.8
		c-0.5-0.5-1.2-0.7-2-0.7c-0.8,0-1.4,0.2-1.9,0.7c-0.5,0.4-0.8,1.1-1,1.9H669.3z"/>
	<path class="st0" d="M701.1,791.1c1.1,1.1,1.6,2.7,1.6,4.6v8.6h-4.5v-8c0-1-0.3-1.7-0.8-2.2c-0.5-0.5-1.2-0.8-2.1-0.8
		s-1.6,0.3-2.1,0.8c-0.5,0.5-0.8,1.3-0.8,2.2v8h-4.5v-8c0-1-0.3-1.7-0.8-2.2c-0.5-0.5-1.2-0.8-2.1-0.8c-0.9,0-1.6,0.3-2.1,0.8
		c-0.5,0.5-0.8,1.3-0.8,2.2v8h-4.5v-14.7h4.5v1.8c0.5-0.6,1.1-1.1,1.8-1.5c0.7-0.4,1.6-0.5,2.5-0.5c1.1,0,2.1,0.2,3,0.7
		c0.9,0.5,1.6,1.2,2,2c0.5-0.8,1.2-1.5,2.1-2c0.9-0.5,1.8-0.8,2.9-0.8C698.5,789.4,700,789.9,701.1,791.1"/>
	<polygon class="st0" points="719.1,789.4 719.1,793.1 725.2,793.1 725.2,796.6 719.1,796.6 719.1,800.7 726,800.7 726,804.3 
		714.6,804.3 714.6,785.7 726,785.7 726,789.4 	"/>
	<polygon class="st0" points="739.2,804.3 736.4,800.2 734,804.3 729.1,804.3 734,796.8 729,789.6 734.1,789.6 736.9,793.6 
		739.3,789.6 744.1,789.6 739.2,797 744.3,804.3 	"/>
	<path class="st0" d="M753.9,790c0.8-0.4,1.7-0.6,2.7-0.6c1.2,0,2.3,0.3,3.3,0.9c1,0.6,1.8,1.5,2.3,2.6c0.6,1.1,0.9,2.5,0.9,4
		c0,1.5-0.3,2.8-0.9,4c-0.6,1.2-1.4,2-2.3,2.7c-1,0.6-2.1,0.9-3.3,0.9c-1,0-1.9-0.2-2.7-0.6c-0.8-0.4-1.4-1-1.8-1.6v9.1h-4.5v-21.8
		h4.5v2.1C752.6,791,753.2,790.4,753.9,790 M757.6,794.2c-0.6-0.6-1.4-1-2.3-1c-0.9,0-1.7,0.3-2.3,1c-0.6,0.7-0.9,1.5-0.9,2.7
		c0,1.1,0.3,2,0.9,2.7c0.6,0.7,1.4,1,2.3,1c0.9,0,1.7-0.3,2.3-1c0.6-0.7,0.9-1.6,0.9-2.7C758.6,795.8,758.2,794.9,757.6,794.2"/>
	<path class="st0" d="M780.9,798h-10.2c0.1,0.9,0.4,1.6,0.9,2.1c0.5,0.5,1.2,0.7,1.9,0.7c1.1,0,1.9-0.5,2.3-1.4h4.8
		c-0.2,1-0.7,1.8-1.3,2.6c-0.6,0.8-1.4,1.4-2.4,1.8c-1,0.4-2.1,0.7-3.2,0.7c-1.4,0-2.7-0.3-3.9-0.9c-1.1-0.6-2-1.5-2.6-2.6
		c-0.6-1.1-0.9-2.5-0.9-4c0-1.5,0.3-2.9,0.9-4c0.6-1.1,1.5-2,2.6-2.6c1.1-0.6,2.4-0.9,3.9-0.9c1.4,0,2.7,0.3,3.8,0.9
		c1.1,0.6,2,1.5,2.6,2.6c0.6,1.1,0.9,2.4,0.9,3.9C781,797.1,781,797.5,780.9,798 M776.4,795.5c0-0.8-0.3-1.4-0.8-1.8
		c-0.5-0.5-1.2-0.7-2-0.7c-0.8,0-1.4,0.2-1.9,0.7c-0.5,0.4-0.8,1.1-1,1.9H776.4z"/>
	<path class="st0" d="M791.5,790.1c0.8-0.5,1.7-0.7,2.6-0.7v4.8h-1.2c-1.1,0-2,0.2-2.5,0.7c-0.6,0.5-0.8,1.3-0.8,2.5v6.8H785v-14.7
		h4.5v2.5C790,791.2,790.7,790.6,791.5,790.1"/>
	<path class="st0" d="M798.2,787.3c-0.5-0.5-0.8-1-0.8-1.7c0-0.7,0.3-1.3,0.8-1.8c0.5-0.5,1.1-0.7,1.9-0.7c0.8,0,1.4,0.2,1.9,0.7
		c0.5,0.5,0.8,1.1,0.8,1.8c0,0.7-0.3,1.3-0.8,1.7c-0.5,0.5-1.1,0.7-1.9,0.7C799.3,788,798.7,787.8,798.2,787.3 M802.4,804.3h-4.5
		v-14.7h4.5V804.3z"/>
	<path class="st0" d="M830.4,791.1c1.1,1.1,1.6,2.7,1.6,4.6v8.6h-4.5v-8c0-1-0.3-1.7-0.8-2.2c-0.5-0.5-1.2-0.8-2.1-0.8
		s-1.6,0.3-2.1,0.8c-0.5,0.5-0.8,1.3-0.8,2.2v8h-4.5v-8c0-1-0.3-1.7-0.8-2.2c-0.5-0.5-1.2-0.8-2.1-0.8c-0.9,0-1.6,0.3-2.1,0.8
		c-0.5,0.5-0.8,1.3-0.8,2.2v8h-4.5v-14.7h4.5v1.8c0.5-0.6,1.1-1.1,1.8-1.5c0.7-0.4,1.6-0.5,2.5-0.5c1.1,0,2.1,0.2,3,0.7
		c0.9,0.5,1.6,1.2,2,2c0.5-0.8,1.2-1.5,2.1-2c0.9-0.5,1.8-0.8,2.9-0.8C827.8,789.4,829.3,789.9,830.4,791.1"/>
	<path class="st0" d="M850.6,798h-10.2c0.1,0.9,0.4,1.6,0.9,2.1c0.5,0.5,1.2,0.7,1.9,0.7c1.1,0,1.9-0.5,2.3-1.4h4.8
		c-0.2,1-0.7,1.8-1.3,2.6c-0.6,0.8-1.4,1.4-2.4,1.8c-1,0.4-2.1,0.7-3.2,0.7c-1.4,0-2.7-0.3-3.9-0.9c-1.1-0.6-2-1.5-2.6-2.6
		c-0.6-1.1-0.9-2.5-0.9-4c0-1.5,0.3-2.9,0.9-4c0.6-1.1,1.5-2,2.6-2.6c1.1-0.6,2.4-0.9,3.9-0.9c1.4,0,2.7,0.3,3.8,0.9
		c1.1,0.6,2,1.5,2.6,2.6c0.6,1.1,0.9,2.4,0.9,3.9C850.7,797.1,850.6,797.5,850.6,798 M846,795.5c0-0.8-0.3-1.4-0.8-1.8
		c-0.5-0.5-1.2-0.7-2-0.7c-0.8,0-1.4,0.2-1.9,0.7c-0.5,0.4-0.8,1.1-1,1.9H846z"/>
	<path class="st0" d="M867.7,791.1c1,1.1,1.5,2.7,1.5,4.6v8.6h-4.5v-8c0-1-0.3-1.8-0.8-2.3c-0.5-0.5-1.2-0.8-2.1-0.8
		c-0.9,0-1.5,0.3-2.1,0.8c-0.5,0.5-0.8,1.3-0.8,2.3v8h-4.5v-14.7h4.5v2c0.5-0.7,1.1-1.2,1.8-1.5c0.8-0.4,1.6-0.6,2.6-0.6
		C865.3,789.4,866.7,790,867.7,791.1"/>
	<path class="st0" d="M882.2,800.5v3.8h-2.3c-1.6,0-2.9-0.4-3.8-1.2c-0.9-0.8-1.4-2.1-1.4-3.9v-5.9h-1.8v-3.7h1.8V786h4.5v3.6h3v3.7
		h-3v5.9c0,0.4,0.1,0.8,0.3,1c0.2,0.2,0.6,0.3,1.1,0.3H882.2z"/>
	<path class="st0" d="M886.3,792.9c0.6-1.1,1.3-2,2.3-2.6c1-0.6,2.1-0.9,3.3-0.9c1,0,1.9,0.2,2.7,0.6c0.8,0.4,1.4,1,1.8,1.7v-2.1
		h4.5v14.7h-4.5v-2.1c-0.4,0.7-1.1,1.2-1.8,1.7c-0.8,0.4-1.7,0.6-2.7,0.6c-1.2,0-2.3-0.3-3.3-0.9c-1-0.6-1.8-1.5-2.3-2.7
		c-0.6-1.2-0.9-2.5-0.9-4C885.4,795.4,885.7,794,886.3,792.9 M895.5,794.3c-0.6-0.7-1.4-1-2.3-1c-0.9,0-1.7,0.3-2.3,1
		c-0.6,0.6-0.9,1.5-0.9,2.7c0,1.1,0.3,2,0.9,2.7c0.6,0.7,1.4,1,2.3,1c0.9,0,1.7-0.3,2.3-1c0.6-0.6,0.9-1.5,0.9-2.7
		C896.4,795.8,896.1,794.9,895.5,794.3"/>
	<path class="st0" d="M914.6,799h4.8c-0.3,1.5-1,2.7-2,3.7c-1,1-2.3,1.5-3.8,1.8v1c0.9,0,1.7,0.3,2.4,0.8c0.7,0.5,1,1.3,1,2.3
		c0,1-0.4,1.8-1.1,2.3c-0.7,0.5-1.6,0.8-2.6,0.8h-4.1V809h3.5c0.4,0,0.6-0.1,0.8-0.2c0.2-0.1,0.3-0.3,0.3-0.5c0-0.2-0.1-0.4-0.3-0.5
		c-0.2-0.1-0.4-0.1-0.8-0.1h-1.9v-3.2c-1.8-0.3-3.3-1.1-4.4-2.4c-1.1-1.3-1.6-3-1.6-5.1c0-1.5,0.3-2.9,0.9-4c0.6-1.1,1.5-2,2.6-2.6
		c1.1-0.6,2.4-0.9,3.8-0.9c1.8,0,3.4,0.5,4.6,1.5c1.2,1,2.1,2.3,2.4,4.1h-4.8c-0.4-1.1-1.2-1.7-2.4-1.7c-0.8,0-1.5,0.3-2,1
		c-0.5,0.6-0.7,1.6-0.7,2.8c0,1.2,0.2,2.1,0.7,2.8c0.5,0.6,1.2,1,2,1C913.4,800.6,914.2,800.1,914.6,799"/>
	<path class="st0" d="M923.3,792.9c0.6-1.1,1.3-2,2.3-2.6c1-0.6,2.1-0.9,3.3-0.9c1,0,1.9,0.2,2.7,0.6c0.8,0.4,1.4,1,1.8,1.7v-2.1
		h4.5v14.7h-4.5v-2.1c-0.4,0.7-1.1,1.2-1.8,1.7c-0.8,0.4-1.7,0.6-2.7,0.6c-1.2,0-2.3-0.3-3.3-0.9c-1-0.6-1.8-1.5-2.3-2.7
		c-0.6-1.2-0.9-2.5-0.9-4C922.5,795.4,922.8,794,923.3,792.9 M929.2,784.4c0.4,0,0.7,0.1,1,0.2c0.3,0.1,0.6,0.3,1.1,0.5
		c0.3,0.2,0.6,0.3,0.8,0.4c0.2,0.1,0.4,0.1,0.6,0.1c0.7,0,1-0.4,1.1-1.2h2.3c-0.4,2.6-1.6,3.9-3.6,3.9c-0.4,0-0.7-0.1-1-0.2
		c-0.3-0.1-0.6-0.3-1.1-0.5c-0.3-0.2-0.6-0.3-0.8-0.4c-0.2-0.1-0.4-0.1-0.6-0.1c-0.7,0-1,0.4-1.2,1.2h-2.3
		C925.9,785.7,927.1,784.4,929.2,784.4 M932.6,794.3c-0.6-0.7-1.4-1-2.3-1c-0.9,0-1.7,0.3-2.3,1c-0.6,0.6-0.9,1.5-0.9,2.7
		c0,1.1,0.3,2,0.9,2.7c0.6,0.7,1.4,1,2.3,1c0.9,0,1.7-0.3,2.3-1c0.6-0.6,0.9-1.5,0.9-2.7C933.5,795.8,933.2,794.9,932.6,794.3"/>
	<path class="st0" d="M945.7,803.6c-1.2-0.6-2.1-1.5-2.7-2.6c-0.7-1.1-1-2.5-1-4c0-1.5,0.3-2.8,1-4c0.7-1.2,1.6-2,2.7-2.7
		c1.2-0.6,2.5-0.9,3.9-0.9c1.4,0,2.7,0.3,3.9,0.9c1.2,0.6,2.1,1.5,2.7,2.7c0.7,1.2,1,2.5,1,4c0,1.5-0.3,2.8-1,4
		c-0.7,1.2-1.6,2-2.8,2.7c-1.2,0.6-2.5,0.9-3.9,0.9C948.1,804.5,946.8,804.2,945.7,803.6 M951.8,799.6c0.6-0.6,0.9-1.5,0.9-2.7
		c0-1.2-0.3-2.1-0.9-2.7c-0.6-0.6-1.3-1-2.2-1c-0.9,0-1.6,0.3-2.2,0.9c-0.6,0.6-0.9,1.5-0.9,2.7c0,1.2,0.3,2.1,0.9,2.7
		c0.6,0.6,1.3,1,2.2,1C950.4,800.6,951.2,800.3,951.8,799.6"/>
	<path class="st0" d="M982.3,798h-10.2c0.1,0.9,0.4,1.6,0.9,2.1c0.5,0.5,1.2,0.7,1.9,0.7c1.1,0,1.9-0.5,2.3-1.4h4.8
		c-0.2,1-0.7,1.8-1.3,2.6c-0.6,0.8-1.4,1.4-2.4,1.8c-1,0.4-2.1,0.7-3.2,0.7c-1.4,0-2.7-0.3-3.9-0.9c-1.1-0.6-2-1.5-2.6-2.6
		c-0.6-1.1-0.9-2.5-0.9-4c0-1.5,0.3-2.9,0.9-4c0.6-1.1,1.5-2,2.6-2.6c1.1-0.6,2.4-0.9,3.9-0.9c1.4,0,2.7,0.3,3.8,0.9
		c1.1,0.6,2,1.5,2.6,2.6c0.6,1.1,0.9,2.4,0.9,3.9C982.4,797.1,982.3,797.5,982.3,798 M977.7,795.5c0-0.8-0.3-1.4-0.8-1.8
		c-0.5-0.5-1.2-0.7-2-0.7c-0.8,0-1.4,0.2-1.9,0.7c-0.5,0.4-0.8,1.1-1,1.9H977.7z"/>
	<polygon class="st0" points="681,810.3 681,828.9 676.5,828.9 676.5,817.8 672.4,828.9 668.7,828.9 664.6,817.7 664.6,828.9 
		660,828.9 660,810.3 665.4,810.3 670.6,823.2 675.7,810.3 	"/>
	<path class="st0" d="M699.7,822.6h-10.2c0.1,0.9,0.4,1.6,0.9,2.1c0.5,0.5,1.2,0.7,1.9,0.7c1.1,0,1.9-0.5,2.3-1.4h4.8
		c-0.2,1-0.7,1.8-1.3,2.6c-0.6,0.8-1.4,1.4-2.4,1.8c-1,0.4-2.1,0.7-3.2,0.7c-1.4,0-2.7-0.3-3.9-0.9c-1.1-0.6-2-1.5-2.6-2.6
		c-0.6-1.1-0.9-2.5-0.9-4c0-1.5,0.3-2.9,0.9-4c0.6-1.1,1.5-2,2.6-2.6c1.1-0.6,2.4-0.9,3.9-0.9c1.4,0,2.7,0.3,3.8,0.9
		c1.1,0.6,2,1.5,2.6,2.6c0.6,1.1,0.9,2.4,0.9,3.9C699.8,821.7,699.7,822.1,699.7,822.6 M695.1,820.1c0-0.8-0.3-1.4-0.8-1.8
		c-0.5-0.5-1.2-0.7-2-0.7c-0.8,0-1.4,0.2-1.9,0.7c-0.5,0.4-0.8,1.1-1,1.9H695.1z"/>
	<rect x="703.7" y="809.3" class="st0" width="4.5" height="19.5"/>
	<path class="st0" d="M726.2,815.7c1,1.1,1.5,2.7,1.5,4.6v8.6h-4.5v-8c0-1-0.3-1.8-0.8-2.3c-0.5-0.5-1.2-0.8-2.1-0.8
		c-0.9,0-1.5,0.3-2.1,0.8c-0.5,0.5-0.8,1.3-0.8,2.3v8h-4.5v-19.5h4.5v6.8c0.5-0.6,1.1-1.2,1.9-1.6c0.8-0.4,1.7-0.6,2.7-0.6
		C723.8,814,725.2,814.5,726.2,815.7"/>
	<path class="st0" d="M735.3,828.2c-1.2-0.6-2.1-1.5-2.7-2.6c-0.7-1.1-1-2.5-1-4c0-1.5,0.3-2.8,1-4c0.7-1.2,1.6-2,2.7-2.7
		c1.2-0.6,2.5-0.9,3.9-0.9c1.4,0,2.7,0.3,3.9,0.9c1.2,0.6,2.1,1.5,2.7,2.7c0.7,1.2,1,2.5,1,4c0,1.5-0.3,2.8-1,4
		c-0.7,1.2-1.6,2-2.8,2.7c-1.2,0.6-2.5,0.9-3.9,0.9C737.7,829.1,736.4,828.8,735.3,828.2 M741.4,824.2c0.6-0.6,0.9-1.5,0.9-2.7
		c0-1.2-0.3-2.1-0.9-2.7c-0.6-0.6-1.3-1-2.2-1c-0.9,0-1.6,0.3-2.2,0.9c-0.6,0.6-0.9,1.5-0.9,2.7c0,1.2,0.3,2.1,0.9,2.7
		c0.6,0.6,1.3,1,2.2,1C740,825.2,740.8,824.9,741.4,824.2"/>
	<path class="st0" d="M757.4,814.7c0.8-0.5,1.7-0.7,2.6-0.7v4.8h-1.2c-1.1,0-2,0.2-2.5,0.7c-0.6,0.5-0.8,1.3-0.8,2.5v6.8h-4.5v-14.7
		h4.5v2.5C755.9,815.8,756.6,815.2,757.4,814.7"/>
	<path class="st0" d="M763.7,817.5c0.6-1.1,1.3-2,2.3-2.6c1-0.6,2.1-0.9,3.3-0.9c1,0,1.9,0.2,2.7,0.6c0.8,0.4,1.4,1,1.8,1.7v-2.1
		h4.5v14.7h-4.5v-2.1c-0.4,0.7-1.1,1.2-1.8,1.7c-0.8,0.4-1.7,0.6-2.7,0.6c-1.2,0-2.3-0.3-3.3-0.9c-1-0.6-1.8-1.5-2.3-2.7
		c-0.6-1.2-0.9-2.5-0.9-4C762.9,820,763.1,818.6,763.7,817.5 M773,818.8c-0.6-0.7-1.4-1-2.3-1c-0.9,0-1.7,0.3-2.3,1
		c-0.6,0.6-0.9,1.5-0.9,2.7c0,1.1,0.3,2,0.9,2.7c0.6,0.7,1.4,1,2.3,1c0.9,0,1.7-0.3,2.3-1c0.6-0.6,0.9-1.5,0.9-2.7
		C773.9,820.4,773.6,819.5,773,818.8"/>
	<path class="st0" d="M806.4,815.7c1.1,1.1,1.6,2.7,1.6,4.6v8.6h-4.5v-8c0-1-0.3-1.7-0.8-2.2c-0.5-0.5-1.2-0.8-2.1-0.8
		c-0.9,0-1.6,0.3-2.1,0.8c-0.5,0.5-0.8,1.3-0.8,2.2v8h-4.5v-8c0-1-0.3-1.7-0.8-2.2c-0.5-0.5-1.2-0.8-2.1-0.8c-0.9,0-1.6,0.3-2.1,0.8
		c-0.5,0.5-0.8,1.3-0.8,2.2v8h-4.5v-14.7h4.5v1.8c0.5-0.6,1.1-1.1,1.8-1.5c0.7-0.4,1.6-0.5,2.5-0.5c1.1,0,2.1,0.2,3,0.7
		c0.9,0.5,1.6,1.2,2,2c0.5-0.8,1.2-1.5,2.1-2c0.9-0.5,1.8-0.8,2.9-0.8C803.9,814,805.4,814.5,806.4,815.7"/>
	<path class="st0" d="M826.6,822.6h-10.2c0.1,0.9,0.4,1.6,0.9,2.1c0.5,0.5,1.2,0.7,1.9,0.7c1.1,0,1.9-0.5,2.3-1.4h4.8
		c-0.2,1-0.7,1.8-1.3,2.6c-0.6,0.8-1.4,1.4-2.4,1.8c-1,0.4-2.1,0.7-3.2,0.7c-1.4,0-2.7-0.3-3.9-0.9c-1.1-0.6-2-1.5-2.6-2.6
		c-0.6-1.1-1-2.5-1-4c0-1.5,0.3-2.9,0.9-4c0.6-1.1,1.5-2,2.6-2.6c1.1-0.6,2.4-0.9,3.9-0.9c1.4,0,2.7,0.3,3.8,0.9
		c1.1,0.6,2,1.5,2.6,2.6c0.6,1.1,0.9,2.4,0.9,3.9C826.7,821.7,826.7,822.1,826.6,822.6 M822.1,820.1c0-0.8-0.3-1.4-0.8-1.8
		c-0.5-0.5-1.2-0.7-2-0.7c-0.8,0-1.4,0.2-1.9,0.7c-0.5,0.4-0.8,1.1-1,1.9H822.1z"/>
	<path class="st0" d="M843.8,815.7c1,1.1,1.5,2.7,1.5,4.6v8.6h-4.5v-8c0-1-0.3-1.8-0.8-2.3c-0.5-0.5-1.2-0.8-2.1-0.8
		c-0.9,0-1.5,0.3-2.1,0.8c-0.5,0.5-0.8,1.3-0.8,2.3v8h-4.5v-14.7h4.5v2c0.5-0.7,1.1-1.2,1.8-1.5c0.8-0.4,1.6-0.6,2.6-0.6
		C841.4,814,842.7,814.5,843.8,815.7"/>
	<path class="st0" d="M858.3,825v3.8H856c-1.6,0-2.9-0.4-3.8-1.2c-0.9-0.8-1.4-2.1-1.4-3.9v-5.9H849v-3.7h1.8v-3.6h4.5v3.6h3v3.7h-3
		v5.9c0,0.4,0.1,0.8,0.3,1c0.2,0.2,0.6,0.3,1.1,0.3H858.3z"/>
	<path class="st0" d="M865.2,828.2c-1.2-0.6-2.1-1.5-2.7-2.6c-0.7-1.1-1-2.5-1-4c0-1.5,0.3-2.8,1-4c0.7-1.2,1.6-2,2.7-2.7
		c1.2-0.6,2.5-0.9,3.9-0.9c1.4,0,2.7,0.3,3.9,0.9c1.2,0.6,2.1,1.5,2.7,2.7c0.7,1.2,1,2.5,1,4c0,1.5-0.3,2.8-1,4
		c-0.7,1.2-1.6,2-2.8,2.7c-1.2,0.6-2.5,0.9-3.9,0.9C867.6,829.1,866.3,828.8,865.2,828.2 M871.3,824.2c0.6-0.6,0.9-1.5,0.9-2.7
		c0-1.2-0.3-2.1-0.9-2.7c-0.6-0.6-1.3-1-2.2-1c-0.9,0-1.6,0.3-2.2,0.9c-0.6,0.6-0.9,1.5-0.9,2.7c0,1.2,0.3,2.1,0.9,2.7
		c0.6,0.6,1.3,1,2.2,1C869.9,825.2,870.7,824.9,871.3,824.2"/>
	<polygon class="st0" points="905.3,810.3 898.8,828.9 893.1,828.9 886.5,810.3 891.3,810.3 895.9,824.3 900.6,810.3 	"/>
	<path class="st0" d="M922.6,822.6h-10.2c0.1,0.9,0.4,1.6,0.9,2.1c0.5,0.5,1.2,0.7,1.9,0.7c1.1,0,1.9-0.5,2.4-1.4h4.8
		c-0.2,1-0.7,1.8-1.3,2.6c-0.6,0.8-1.4,1.4-2.4,1.8c-1,0.4-2.1,0.7-3.2,0.7c-1.4,0-2.7-0.3-3.9-0.9c-1.1-0.6-2-1.5-2.6-2.6
		c-0.6-1.1-0.9-2.5-0.9-4c0-1.5,0.3-2.9,0.9-4c0.6-1.1,1.5-2,2.6-2.6c1.1-0.6,2.4-0.9,3.9-0.9c1.4,0,2.7,0.3,3.8,0.9
		c1.1,0.6,2,1.5,2.6,2.6c0.6,1.1,0.9,2.4,0.9,3.9C922.7,821.7,922.7,822.1,922.6,822.6 M918.1,820.1c0-0.8-0.3-1.4-0.8-1.8
		c-0.5-0.5-1.2-0.7-2-0.7c-0.8,0-1.4,0.2-1.9,0.7c-0.5,0.4-0.8,1.1-1,1.9H918.1z"/>
	<path class="st0" d="M935,814.6c0.8,0.4,1.4,1,1.8,1.7v-2.1h4.5v14.7c0,1.4-0.3,2.6-0.8,3.7c-0.5,1.1-1.4,2-2.5,2.6
		c-1.1,0.7-2.5,1-4.1,1c-2.2,0-4-0.5-5.3-1.5c-1.4-1-2.1-2.4-2.3-4.2h4.5c0.1,0.6,0.5,1,1,1.3c0.5,0.3,1.2,0.5,2,0.5
		c0.9,0,1.7-0.3,2.2-0.8c0.6-0.5,0.8-1.4,0.8-2.6v-2.1c-0.4,0.7-1,1.2-1.8,1.7c-0.8,0.4-1.7,0.6-2.7,0.6c-1.2,0-2.3-0.3-3.3-0.9
		c-1-0.6-1.8-1.5-2.3-2.7c-0.6-1.2-0.9-2.5-0.9-4c0-1.5,0.3-2.8,0.9-4c0.6-1.1,1.3-2,2.3-2.6c1-0.6,2.1-0.9,3.3-0.9
		C933.3,813.9,934.2,814.1,935,814.6 M935.8,818.8c-0.6-0.7-1.4-1-2.3-1c-0.9,0-1.7,0.3-2.3,1c-0.6,0.6-0.9,1.5-0.9,2.7
		c0,1.1,0.3,2,0.9,2.7c0.6,0.7,1.4,1,2.3,1c0.9,0,1.7-0.3,2.3-1c0.6-0.6,0.9-1.5,0.9-2.7C936.8,820.4,936.5,819.5,935.8,818.8"/>
	<path class="st0" d="M960,822.6h-10.2c0.1,0.9,0.4,1.6,0.9,2.1c0.5,0.5,1.2,0.7,1.9,0.7c1.1,0,1.9-0.5,2.3-1.4h4.8
		c-0.2,1-0.7,1.8-1.3,2.6c-0.6,0.8-1.4,1.4-2.4,1.8c-1,0.4-2.1,0.7-3.2,0.7c-1.4,0-2.7-0.3-3.9-0.9c-1.1-0.6-2-1.5-2.6-2.6
		c-0.6-1.1-0.9-2.5-0.9-4c0-1.5,0.3-2.9,0.9-4c0.6-1.1,1.5-2,2.6-2.6c1.1-0.6,2.4-0.9,3.9-0.9c1.4,0,2.7,0.3,3.8,0.9
		c1.1,0.6,2,1.5,2.6,2.6c0.6,1.1,0.9,2.4,0.9,3.9C960,821.7,960,822.1,960,822.6 M955.4,820.1c0-0.8-0.3-1.4-0.8-1.8
		c-0.5-0.5-1.2-0.7-2-0.7c-0.8,0-1.4,0.2-1.9,0.7c-0.5,0.4-0.8,1.1-1,1.9H955.4z"/>
	<path class="st0" d="M972.2,825v3.8h-2.3c-1.6,0-2.9-0.4-3.8-1.2c-0.9-0.8-1.4-2.1-1.4-3.9v-5.9h-1.8v-3.7h1.8v-3.6h4.5v3.6h3v3.7
		h-3v5.9c0,0.4,0.1,0.8,0.3,1c0.2,0.2,0.6,0.3,1.1,0.3H972.2z"/>
	<path class="st0" d="M976.3,817.5c0.6-1.1,1.3-2,2.3-2.6c1-0.6,2.1-0.9,3.3-0.9c1,0,1.9,0.2,2.7,0.6c0.8,0.4,1.4,1,1.8,1.7v-2.1
		h4.5v14.7h-4.5v-2.1c-0.4,0.7-1.1,1.2-1.8,1.7c-0.8,0.4-1.7,0.6-2.7,0.6c-1.2,0-2.3-0.3-3.3-0.9c-1-0.6-1.8-1.5-2.3-2.7
		c-0.6-1.2-0.9-2.5-0.9-4C975.4,820,975.7,818.6,976.3,817.5 M985.5,818.8c-0.6-0.7-1.4-1-2.3-1c-0.9,0-1.7,0.3-2.3,1
		c-0.6,0.6-0.9,1.5-0.9,2.7c0,1.1,0.3,2,0.9,2.7c0.6,0.7,1.4,1,2.3,1c0.9,0,1.7-0.3,2.3-1c0.6-0.6,0.9-1.5,0.9-2.7
		C986.4,820.4,986.1,819.5,985.5,818.8"/>
	<rect x="995.8" y="809.3" class="st0" width="4.5" height="19.5"/>
</g>
<g>
	<defs>
		<path id="SVGID_1_" d="M206.5,490l-6.7,161.6c-0.6,15.4-20.9,20.7-28.9,7.5c-27.7-45.5-70.2-116.9-95.1-166.2
			c-4.1-8.1-13.1-12.3-21.9-10.2c-9,2.1-15.2,10.3-14.9,19.6l7.4,228.3c0.3,8.7,7.6,15.4,16.2,15.1l0.6,0c8.6-0.3,15.3-7.5,15-16.1
			l-3.2-105c-0.5-15.9,20.3-22.3,28.8-8.9l75.5,118.7c4.5,7.1,12.3,11.3,20.6,11.3c13,0,23.7-10.1,24.4-23l13.4-231.1
			c0.5-8.8-6.4-16.3-15.2-16.5c-0.1,0-0.3,0-0.4,0C213.7,475,206.8,481.6,206.5,490"/>
	</defs>
	<clipPath id="SVGID_2_">
		<use xlink:href="#SVGID_1_"  style="overflow:visible;"/>
	</clipPath>
	
		<linearGradient id="SVGID_3_" gradientUnits="userSpaceOnUse" x1="-600.0497" y1="1183.5187" x2="-599.0497" y2="1183.5187" gradientTransform="matrix(-1.623 329.4712 329.4712 1.623 -390770 196230.5469)">
		<stop  offset="0" style="stop-color:#95C848"/>
		<stop  offset="1" style="stop-color:#06AE8A"/>
	</linearGradient>
	<polygon class="st1" points="239.5,475.1 238.2,747.1 37.2,746.1 38.6,474.1 	"/>
</g>
<g>
	<defs>
		<path id="SVGID_4_" d="M397.1,505.1L283,506.5c-7.4,0.1-13.4,6-13.6,13.4l-5,208.9c-0.2,8.2,6.8,14.7,14.9,14l149.1-12.6
			c7.5-0.6,13.1-7.2,12.6-14.7c-0.6-7.6-7.2-13.3-14.9-12.7l-118.3,9.9c-8.2,0.7-15.1-5.9-14.9-14l1.1-49.4
			c0.2-7.4,6.2-13.4,13.6-13.5l89.3-1.1c7.6-0.1,13.7-6.3,13.6-13.9l0-0.3c-0.1-7.6-6.3-13.7-13.9-13.6l-87.3,1
			c-7.8,0.1-14.1-6.3-13.9-14.1l1.1-46.4c0.2-7.4,6.2-13.3,13.6-13.4l87.3-1c7.6-0.1,13.7-6.3,13.6-13.9l0-0.3
			c-0.1-7.5-6.2-13.6-13.8-13.6C397.2,505.1,397.1,505.1,397.1,505.1"/>
	</defs>
	<clipPath id="SVGID_5_">
		<use xlink:href="#SVGID_4_"  style="overflow:visible;"/>
	</clipPath>
	
		<linearGradient id="SVGID_6_" gradientUnits="userSpaceOnUse" x1="-600.0497" y1="1183.5156" x2="-599.0497" y2="1183.5156" gradientTransform="matrix(-1.623 329.4712 329.4712 1.623 -390554.4063 196231.6563)">
		<stop  offset="0" style="stop-color:#95C848"/>
		<stop  offset="1" style="stop-color:#06AE8A"/>
	</linearGradient>
	<polygon class="st2" points="442.7,505.1 441.6,744.5 263.1,743.6 264.3,504.2 	"/>
</g>
<g>
	<defs>
		<path id="SVGID_7_" d="M913.4,489.5l-5.6,1c-6.4,1.1-11.2,6.5-11.6,12.9l-15,210.5c-0.6,7.8,5.3,14.6,13.1,15.1l0.4,0
			c7.8,0.6,14.6-5.3,15.2-13.1l8-111.6c1-14.6,20.8-18.2,27-4.9l57.4,123.8c2.4,5.3,7.8,8.5,13.6,8.2l7.3-0.4
			c5.8-0.3,10.9-4.2,12.7-9.7l37.2-112.1c4.7-14.1,25.1-12.4,27.5,2.3l16.7,106c1.2,7.8,8.5,13,16.2,11.8l0.3,0
			c7.7-1.2,13-8.5,11.8-16.2l-33.1-210.8c-1-6.4-6.3-11.3-12.8-11.9l-5.4-0.5c-6.5-0.6-12.6,3.4-14.7,9.6l-51.2,153.8
			c-4.1,12.2-20.9,13.1-26.3,1.5l-73.2-157.5c-2.4-5.1-7.4-8.2-12.8-8.2C915.1,489.3,914.2,489.4,913.4,489.5"/>
	</defs>
	<clipPath id="SVGID_8_">
		<use xlink:href="#SVGID_7_"  style="overflow:visible;"/>
	</clipPath>
	
		<linearGradient id="SVGID_9_" gradientUnits="userSpaceOnUse" x1="-600.0532" y1="1183.5621" x2="-599.0532" y2="1183.5621" gradientTransform="matrix(-1.5174 308.0334 308.0334 1.5174 -364472.8125 183500.0938)">
		<stop  offset="0" style="stop-color:#95C848"/>
		<stop  offset="1" style="stop-color:#06AE8A"/>
	</linearGradient>
	<polygon class="st3" points="1147.8,489.3 1146.6,733.1 879.4,731.8 880.6,488 	"/>
</g>
<g>
	<defs>
		<path id="SVGID_10_" d="M752.7,497.5c-15.7,2.1-30.4,6.8-43.6,15.7c-14.1,9.4-24.1,21.6-25.3,39.3c-1.1,16.5,3.8,30.5,17.2,41
			c8.5,6.7,18.2,11,28.1,15c0.9,0.4,1.7,0.8,3,1.5c-0.9,0.7-1.3,1.2-1.8,1.4c-5.6,2.4-11.3,4.6-16.8,7.2
			c-13.3,6.5-25.7,14.2-34.1,27c-11.6,17.6-12.7,35.8-2,54.1c7.4,12.6,18.2,22,31.1,28.9c13.9,7.4,29,10.5,44.6,11.8
			c23.7,1.9,46.9,0,69.1-9.1c11.6-4.8,22.3-11.1,30.6-20.7c7.7-8.8,11.4-18.8,7.7-30.6c-2.7-8.6-11.4-15.6-20.2-16.4
			c-10.6-0.9-19.4,3.7-23.7,12.9c-3.1,6.6-5.7,13.3-8.3,20.1c-5.9,15.4-16.2,25.4-33.2,27c-19.7,1.9-36.4-4-47.4-21.2
			c-9.7-15.2-10.4-32.1-6.9-49.3c4-18.9,21.1-33.9,40.4-34.5c11.1-0.3,22.2,1.4,33.3,1.7c5.2,0.1,10.5-0.8,15.6-1.9
			c2.9-0.6,5.2-2.7,5.4-6.2c0.2-3.7-1.8-6-4.8-7.5c-1.9-0.9-4-1.6-6.1-1.6c-7.8,0.1-15.7,0.5-23.5,0.7c-8.8,0.3-17.6,1.3-26.3,0.4
			c-12-1.2-21.2-7.7-27-18.6c-6.3-12.1-6.7-25-4.7-38.1c1.4-8.9,5.1-16.8,11.4-23.3c12.5-12.8,28.1-15.7,45-13.5
			c11.4,1.5,19.8,7.4,25.1,17.7c1.7,3.2,3.3,6.5,5.3,9.5c3.1,4.7,6,9.6,9.9,13.5c5.8,5.9,15.4,6.9,22.6,3.2
			c8.1-4.2,13.4-12.8,12.1-20.9c-1.5-9.3-6.4-16.9-14.2-22.2c-10.5-7.2-22.5-10.4-34.8-12.6c-10.5-1.9-21-2.9-31.6-2.9
			C767,496.1,759.8,496.6,752.7,497.5"/>
	</defs>
	<clipPath id="SVGID_11_">
		<use xlink:href="#SVGID_10_"  style="overflow:visible;"/>
	</clipPath>
	
		<linearGradient id="SVGID_12_" gradientUnits="userSpaceOnUse" x1="-600.0532" y1="1183.5603" x2="-599.0532" y2="1183.5603" gradientTransform="matrix(-1.5174 308.0334 308.0334 1.5174 -364720.2813 183498.9063)">
		<stop  offset="0" style="stop-color:#95C848"/>
		<stop  offset="1" style="stop-color:#06AE8A"/>
	</linearGradient>
	<polygon class="st4" points="865.4,496.1 864.2,743.2 665.6,742.3 666.8,495.1 	"/>
</g>
<path class="st5" d="M687.3,495.2"/>
<g>
	<g>
		<defs>
			<path id="SVGID_13_" d="M563.2,554.5c1.4,2.3,3.1,4.7,5.1,7l0,0C566.2,559,564.5,556.7,563.2,554.5
				C563.2,554.5,563.2,554.5,563.2,554.5"/>
		</defs>
		<clipPath id="SVGID_14_">
			<use xlink:href="#SVGID_13_"  style="overflow:visible;"/>
		</clipPath>
		
			<linearGradient id="SVGID_15_" gradientUnits="userSpaceOnUse" x1="-556.7068" y1="1185.8712" x2="-555.7068" y2="1185.8712" gradientTransform="matrix(5.0679 0 0 -5.0679 3384.4692 6567.7949)">
			<stop  offset="0" style="stop-color:#0964AD"/>
			<stop  offset="6.968129e-02" style="stop-color:#43578F"/>
			<stop  offset="0.1498" style="stop-color:#7F4A70"/>
			<stop  offset="0.2235" style="stop-color:#AE4057"/>
			<stop  offset="0.2883" style="stop-color:#D03846"/>
			<stop  offset="0.3417" style="stop-color:#E4343B"/>
			<stop  offset="0.3771" style="stop-color:#EC3237"/>
			<stop  offset="0.6944" style="stop-color:#FFF112"/>
			<stop  offset="0.8748" style="stop-color:#3EB870"/>
			<stop  offset="1" style="stop-color:#3EB870"/>
		</linearGradient>
		<rect x="563.2" y="554.5" class="st6" width="5.1" height="7"/>
	</g>
	<g>
		<defs>
			<path id="SVGID_16_" d="M563.5,609.5c-4.5,2.8-2.7,4.2-2.7,4.2l27.8-10.7c-0.8-1.3-1.7-2.5-2.4-3.5
				C581.9,601.1,566.3,607.7,563.5,609.5"/>
		</defs>
		<clipPath id="SVGID_17_">
			<use xlink:href="#SVGID_16_"  style="overflow:visible;"/>
		</clipPath>
	</g>
	<g>
		<path class="st7" d="M584,594.7L584,594.7c0.5,0.6,1.1,1.2,1.6,1.9C584.7,595.4,584,594.7,584,594.7"/>
	</g>
	<g>
		<defs>
			<path id="SVGID_18_" d="M564.8,560.4c-0.1,1.5,1,3.1,1.4,4.9c4.3-1.7,9.8-4.7,13.8-7.1c3.2-1.9-0.3-3.8-0.3-3.8L564.8,560.4z"/>
		</defs>
		<clipPath id="SVGID_19_">
			<use xlink:href="#SVGID_18_"  style="overflow:visible;"/>
		</clipPath>
	</g>
	<g>
		<defs>
			<path id="SVGID_20_" d="M552.7,629.5c-0.1,0-0.2,0.1-0.2,0.1c-2.6,1.2-0.8,4.4,1.9,3.7l41.7-11.6c1.6-0.4,2.2-2.1,1.1-3.2
				c-0.4-0.5-0.9-0.9-1.3-1.3c-0.6-0.6-1.6-0.9-2.6-0.6C583.7,619.2,557.6,627.3,552.7,629.5"/>
		</defs>
		<clipPath id="SVGID_21_">
			<use xlink:href="#SVGID_20_"  style="overflow:visible;"/>
		</clipPath>
		
			<linearGradient id="SVGID_22_" gradientUnits="userSpaceOnUse" x1="-593.9458" y1="1180.2214" x2="-592.5696" y2="1180.2214" gradientTransform="matrix(30.0829 -12.2631 -12.2631 -30.0829 32900.3164 28851.5645)">
			<stop  offset="0" style="stop-color:#53BC66"/>
			<stop  offset="0.4121" style="stop-color:#F9B104"/>
		</linearGradient>
		<polygon class="st8" points="534.9,618.9 591.5,602.6 608.7,632.4 552.1,648.7 		"/>
	</g>
	<g>
		<defs>
			<path id="SVGID_23_" d="M559.3,611.4c0,0-0.1,0-0.2,0.1c-0.5,0.4-0.1,1.7,0.6,3.2c9.8-3.3,19.7-6.7,29.5-10
				c-0.7-1.4-1.4-2.7-2.2-4.1C570.9,607,559.9,611.3,559.3,611.4z"/>
		</defs>
		<linearGradient id="SVGID_24_" gradientUnits="userSpaceOnUse" x1="558.8714" y1="607.6839" x2="589.1702" y2="607.6839">
			<stop  offset="0" style="stop-color:#44B96E"/>
			<stop  offset="2.370255e-02" style="stop-color:#4BB96B"/>
			<stop  offset="7.138433e-02" style="stop-color:#52BA68"/>
			<stop  offset="0.2039" style="stop-color:#54BA67"/>
			<stop  offset="0.2097" style="stop-color:#5AB865"/>
			<stop  offset="0.2509" style="stop-color:#7EAF56"/>
			<stop  offset="0.2973" style="stop-color:#9EA748"/>
			<stop  offset="0.3485" style="stop-color:#BA9F3D"/>
			<stop  offset="0.4063" style="stop-color:#D09A34"/>
			<stop  offset="0.4739" style="stop-color:#E1952D"/>
			<stop  offset="0.5574" style="stop-color:#EC9229"/>
			<stop  offset="0.6746" style="stop-color:#F39026"/>
			<stop  offset="1" style="stop-color:#F59025"/>
		</linearGradient>
		<use xlink:href="#SVGID_23_"  style="overflow:visible;fill:url(#SVGID_24_);"/>
		<clipPath id="SVGID_25_">
			<use xlink:href="#SVGID_23_"  style="overflow:visible;"/>
		</clipPath>
		<linearGradient id="SVGID_26_" gradientUnits="userSpaceOnUse" x1="547.0747" y1="608.1704" x2="595.7234" y2="608.1704">
			<stop  offset="0" style="stop-color:#5BBE63"/>
			<stop  offset="0.2223" style="stop-color:#5DBD62"/>
			<stop  offset="0.3023" style="stop-color:#64BA5E"/>
			<stop  offset="0.3594" style="stop-color:#6FB457"/>
			<stop  offset="0.4055" style="stop-color:#80AB4D"/>
			<stop  offset="0.4451" style="stop-color:#96A040"/>
			<stop  offset="0.48" style="stop-color:#B2922F"/>
			<stop  offset="0.5109" style="stop-color:#D1831C"/>
			<stop  offset="0.5354" style="stop-color:#F0730A"/>
		</linearGradient>
		<polygon class="st9" points="547.1,602.5 584.4,588.8 595.7,613.9 558.4,627.6 		"/>
	</g>
	<g>
		<defs>
			<path id="SVGID_27_" d="M557,645.2c-7.6,3.6-4.6,5.4-4.6,5.4c0,0,0,0,0,0l43-12.5c0.5-2.1,0.7-2.6,1.2-4.7l0,0
				c-0.6-0.7-1.5-0.9-2.4-0.7C585.5,635.3,561.5,643.1,557,645.2"/>
		</defs>
		<clipPath id="SVGID_28_">
			<use xlink:href="#SVGID_27_"  style="overflow:visible;"/>
		</clipPath>
		
			<linearGradient id="SVGID_29_" gradientUnits="userSpaceOnUse" x1="-594.0357" y1="1179.7441" x2="-592.6597" y2="1179.7441" gradientTransform="matrix(30.0829 -12.2631 -12.2631 -30.0829 32900.3164 28851.5645)">
			<stop  offset="4.795011e-07" style="stop-color:#4CBB6A"/>
			<stop  offset="0.1505" style="stop-color:#94C53F"/>
			<stop  offset="0.3582" style="stop-color:#FDD301"/>
		</linearGradient>
		<polygon class="st10" points="540,635.8 589.1,620.1 604.1,648.8 555,664.4 		"/>
	</g>
	<linearGradient id="SVGID_30_" gradientUnits="userSpaceOnUse" x1="587.9626" y1="524.4938" x2="588.1203" y2="531.7463">
		<stop  offset="0" style="stop-color:#78C355"/>
		<stop  offset="1" style="stop-color:#78C355"/>
	</linearGradient>
	<path class="st11" d="M593.6,527.3l-10.9,4.6l0.2-1.7l-1.4-1l10.9-4.6c0.2-0.1,0.4-0.1,0.6-0.1c0.6,0,1.2,0.3,1.4,0.9
		C594.7,526.1,594.4,527,593.6,527.3z"/>
	
		<linearGradient id="SVGID_31_" gradientUnits="userSpaceOnUse" x1="542.5649" y1="547.4254" x2="542.6926" y2="553.3002" gradientTransform="matrix(1.2903 -6.003979e-02 8.961306e-02 1.3228 -159.1947 -156.3975)">
		<stop  offset="0" style="stop-color:#78C355"/>
		<stop  offset="1" style="stop-color:#73C258"/>
	</linearGradient>
	<path class="st12" d="M584.6,543.2l12.7-5.3c0.9-0.4,1.3-1.3,0.9-2.2l0,0c-0.4-0.9-1.3-1.3-2.2-0.9l-12.7,5.3
		c-0.9,0.4-1.3,1.3-0.9,2.2h0C582.7,543.2,583.7,543.6,584.6,543.2z"/>
	<linearGradient id="SVGID_32_" gradientUnits="userSpaceOnUse" x1="575.3799" y1="561.8765" x2="573.7987" y2="556.3578">
		<stop  offset="0" style="stop-color:#961F42"/>
		<stop  offset="0.5493" style="stop-color:#86244C"/>
		<stop  offset="1" style="stop-color:#7E2751"/>
	</linearGradient>
	<path class="st13" d="M581.7,558.5l-11.8,4.9c-0.5,0.2-1.2,0-1.4-0.6l-0.8-2c-0.2-0.6,0-1.2,0.6-1.4l11.7-4.9l-0.3,2.4L581.7,558.5
		z"/>
	<linearGradient id="SVGID_33_" gradientUnits="userSpaceOnUse" x1="569.7433" y1="550.5087" x2="568.3809" y2="545.7532">
		<stop  offset="8.204796e-07" style="stop-color:#51356D"/>
		<stop  offset="0.4077" style="stop-color:#493872"/>
		<stop  offset="1" style="stop-color:#343F7F"/>
	</linearGradient>
	<path class="st14" d="M576.2,547l-12.6,5.3c-0.2,0.1-0.4,0-0.5-0.2l-1-2.3c-0.1-0.2,0-0.4,0.2-0.5l12.6-5.3
		c-0.8,0.4-1.2,1.3-0.8,2.2c0.3,0.6,0.9,1,1.6,1C575.8,547.1,576,547.1,576.2,547z"/>
	<path class="st5" d="M594,557.5"/>
	<linearGradient id="SVGID_34_" gradientUnits="userSpaceOnUse" x1="585.2225" y1="516.6883" x2="585.2243" y2="516.7084">
		<stop  offset="0" style="stop-color:#78C355"/>
		<stop  offset="1" style="stop-color:#78C355"/>
	</linearGradient>
	<path class="st15" d="M585.3,516.7c0,0-0.1,0-0.1,0"/>
	<path class="st5" d="M589.1,520.3"/>
	<g>
		<defs>
			<path id="SVGID_35_" d="M464.2,343.8c-22.1,22.3-28.3,56.6-21.7,83.5c1.2,4.9,2.7,8.9,3.5,10.8c4.7,12.1,13.7,28.5,20.8,43.7
				c0.8,1.7,2.4,5.2,0.9,7.3c-1.2,1.7-4.3,1.8-9,1.5c-10.1-0.9-18.9-6.7-22.3-9.2c-0.8-0.6-1.6-1.2-2.4-1.9
				c-2.1-1.7,0.2-4.9,2.4-3.4c6.6,4.2,12.4,7.3,15.7,8.9c1.4,0.7,3-0.3,3-1.9c0-4.8-1.2-14.6-9.3-26.4c-1.5-2.2-18.5-22.5-44.6-21
				c-17,1-34.3,10.3-33.6,16.4c0.7,6.4,20.5,2.9,34,18.4c2.8,3.3,5.8,7.9,12.3,12.3c5.9,4,12.3,6.2,13.2,6.6c1.6,0.6,3.2,1,5,1.4
				c6.8,1.6,14.4,1.1,23.2,5.5c0,0,10.2,3.9,13.9,10.6c0.9,1.6,1.5,3.2,1.8,4.6c0,0.1,0,0.1,0,0.2c0,0,0,0.2,0.1,0.7c0,0,0,0,0,0.1
				c4.6,24.2,7.9,53.1,7.9,53.1c3,26,5.4,46.8,6.1,75.1c0.3,11.3,0.5,30.3-1.5,54.1c-2.6,30-6.7,44.2-15.3,54.4
				c-7.4,8.7-17.2,15.1-17.2,15.1c-6.4,4.1-12,6.4-14.7,7.4c-5.6,2.1-10,3-16.9,4.3c-8.2,1.5-10.2,1.6-17.6,3.1
				c-9.3,1.9-14,2.9-14,4.3c0,2.1,10,4.6,19.4,4.9c9.2,0.3,16.3-1.5,24-3.6c13.9-3.7,16-6.5,27-7.8c6.5-0.8,11-1.2,16,1
				c8.5,3.8,12.2,12.6,13.4,15.7c4.8,11.8,2.1,22.4,5.3,23.1c1.7,0.4,4.6-2.3,6-4.2c0.1-0.2,0.4-0.6,1.2-2.1
				c0.8-1.5,1.4-2.8,2.7-5.5c0,0,1.1-2.4,3.5-6.7c2.6-4.7,8.4-10.3,15.1-12.5c2.7-0.9,5.7-1.3,17.4,0.5c13.1,2.1,16,3.7,23.5,4.9
				c13.8,2.2,25,0.2,29.9-0.8c14.6-2.9,28.7-9.5,28.1-11.7c-0.4-1.6-8.9,0.5-25.3,0.5c-17.6,0-29.5-2.5-32.2-3.1
				c-20.6-4.4-32.2-12.5-32.2-16.3c0-2.5,1.2-4.5,1.2-4.5c0.8-1.4,1.7-2.2,2.3-2.6c1.7-1.5,5.9-5,8-8.9c1.3-2.4,2.3-5.9,1.3-6.6
				c-1.3-0.9-4.3,4-11.1,6.5c-2.1,0.8-6.7,2.4-10,0.7c-4.1-2.1-4.7-8.1-5.5-14.9c-1.2-9.4-2.9-22.7-4.7-38.8
				c-2.7-23.1-4-34.7-4.9-47.7c-1.8-26.4-2.6-39.7-0.5-54.1c3.1-21.1,7.2-48.9,29.8-64.8c21.3-15,60.8-22.4,77.4,0.7
				c18,24.9,19.6,74.5-1.7,107.9c-21.3,33.4-53.5,22.3-57.5,9.7c-4-12.6,5.5-32.6,21-47.3c17-16.2,27.7-26.3,29.9-44.1
				c0.9-7.2-0.3-13.3-1.4-17.3c-0.8-2.3-2.3-5.8-5.3-9.4c-2.4-2.9-4.8-4.5-5.3-4.9c-5.5-3.7-11-4.2-11.1-4c-0.1,0.2,2.3,1.3,5,3.9
				c0,0,2.6,2.4,4.5,4.9c4.2,5.4,4.5,12.7,4.6,16.5c0.3,10.1-2.9,17.9-4.3,20.8c-7.3,16.1-19.5,22.3-29.8,32.2
				c-14.7,14.2-32.1,42.3-24.1,61c8.8,20.6,47.8,27.8,74.9,16c15.5-6.8,23.9-18.4,29.3-25.9c26.9-37.4,18.1-81.9,16.3-90.9
				c-3.3-16.5-7.4-37.4-25.4-53.7c-18.6-16.9-49.1-22.1-75.8-17.4c-37.5,6.6-56,28-60.9,34.7c-0.5,0.7-1.6,0.4-1.7-0.5l-0.6-4.8
				c-0.4-4.3-0.1-15.5,10.7-23.4c16.8-12.4,17.2-12.8,21-16.6c4.5-4.5,9.7-11.9,14.7-28.8c2.8-9.5,6.7-22.8,3.4-24.5
				c-1.7-0.9-4.5,1.7-7.2,4c-23.1,19.8-30.5,16.7-34.9,28.7c-4.2,11.4-3.2,19.8-2.1,23.9c0.4,1.4,2.1,1.9,3.2,1
				c2.2-1.9,5.7-5.2,9.6-9.3c1.7-1.8,4.4,0.6,2.9,2.5c-0.1,0.1-0.1,0.1-0.2,0.2c-4.3,5.4-8.4,9.2-12.2,12.1c-0.7,0.5-1.3,1-2,1.4
				c-0.1,0-0.1,0.1-0.2,0.1c-9.7,6.5-15,6.5-23.9-6.7c-6.3-9.4-9.9-15.7-11.3-24.1c-1.4-8.5-3-19.1-3.5-28.7v0
				c-0.4-6.8-0.4-13.2,0.5-18c0.2-1.3,2.2-1.2,2.3,0.1c2.4,26.2,10.8,51.8,13.8,60.2c0.5,1.4,2.3,1.9,3.4,0.8
				c7.2-6.7,20.9-22.6,20.2-42.1c-0.7-20.8-14.3-22-18.6-45.4c-4.7-25.5,7.8-44,1.5-47.7C479.8,328,465.7,342.2,464.2,343.8z"/>
		</defs>
		<clipPath id="SVGID_36_">
			<use xlink:href="#SVGID_35_"  style="overflow:visible;"/>
		</clipPath>
		
			<linearGradient id="SVGID_37_" gradientUnits="userSpaceOnUse" x1="-600.1459" y1="1183.5938" x2="-599.0607" y2="1183.5938" gradientTransform="matrix(6.4111 294.9098 294.9098 -6.4111 -344709.3125 185015.4063)">
			<stop  offset="0" style="stop-color:#95C848"/>
			<stop  offset="0.1594" style="stop-color:#88C64E"/>
			<stop  offset="0.4517" style="stop-color:#67C05D"/>
			<stop  offset="0.8413" style="stop-color:#32B676"/>
			<stop  offset="1" style="stop-color:#1AB281"/>
		</linearGradient>
		<polygon class="st16" points="660.2,291.2 671.3,844.8 338.7,852.7 327.6,299 		"/>
		<path class="st17" d="M640.3,637.4"/>
		<path class="st17" d="M1205.1,740.1c-227.7,6.1-455.5,12.3-683.2,18.4"/>
		<path class="st17" d="M736.3,895.8"/>
		<path class="st17" d="M680.2,467.9"/>
	</g>
	<g>
		<defs>
			<path id="SVGID_38_" d="M560.9,571.2c2.4,3,4,4.6,9.4,10.2c3.1,3.2,6.9,7.3,11.3,12.1l0,0c0,0,0.6,0.8,1.6,2.1
				c0.5,0.7,1.1,1.5,1.6,2.2c0,0,0,0,0,0c0.9,1.3,1.9,2.9,2.9,4.8l0.1,0c1.5,2.6,2.7,5.3,3.8,8.2c0,0,0,0,0,0
				c2.5,6.6,4.1,14.3,2.2,21.8l0,0c-0.3,1.3-0.7,2.5-1.2,3.6c0,0,0,0,0,0h0c-4.5,10.5-15.2,13.2-15.2,13.2s26.1-0.5,30.2-27.9
				c3.1-20.4-17.1-37.8-32.5-55h0c-2.7-2.9-4.9-5.7-6.9-8.3l0,0c-2.1-2.7-3.9-5.4-5.4-8.1c0,0,0,0,0,0c-3.3-5.7-4.5-10.8-5.1-13.9
				c-0.5-3.3-1.1-7,0.4-11.2c0.7-2,1.7-3.6,2.5-4.6c-1.3,0.6-3.5,1.7-5.6,3.7c-8.4,8.3-6.6,23.9-2.9,33.3
				C554.6,563.2,558.3,567.8,560.9,571.2z"/>
		</defs>
		<clipPath id="SVGID_39_">
			<use xlink:href="#SVGID_38_"  style="overflow:visible;"/>
		</clipPath>
		
			<linearGradient id="SVGID_40_" gradientUnits="userSpaceOnUse" x1="-599.5858" y1="1184.5841" x2="-598.5858" y2="1184.5841" gradientTransform="matrix(36.3562 116.7225 116.7225 -36.3562 -115906.8047 113592.5391)">
			<stop  offset="0" style="stop-color:#00509F"/>
			<stop  offset="6.873108e-02" style="stop-color:#393D7C"/>
			<stop  offset="0.1491" style="stop-color:#752A57"/>
			<stop  offset="0.223" style="stop-color:#A41A3A"/>
			<stop  offset="0.2881" style="stop-color:#C60F25"/>
			<stop  offset="0.3416" style="stop-color:#DA0818"/>
			<stop  offset="0.3771" style="stop-color:#E20613"/>
			<stop  offset="0.4272" style="stop-color:#E72A10"/>
			<stop  offset="0.5032" style="stop-color:#ED5B0C"/>
			<stop  offset="0.5814" style="stop-color:#F38408"/>
			<stop  offset="0.6606" style="stop-color:#F7A605"/>
			<stop  offset="0.741" style="stop-color:#FBC003"/>
			<stop  offset="0.823" style="stop-color:#FDD301"/>
			<stop  offset="0.9079" style="stop-color:#FFDE00"/>
			<stop  offset="1" style="stop-color:#FFE200"/>
		</linearGradient>
		<polygon class="st18" points="604.5,498 648,637.7 546.8,669.2 503.3,529.5 		"/>
	</g>
	<path class="st5" d="M615.1,669.1"/>
	<path class="st5" d="M617.2,659.2"/>
	<path class="st5" d="M506.2,787.5"/>
	<path class="st5" d="M500.4,698.7"/>
	<g>
		
			<linearGradient id="SVGID_41_" gradientUnits="userSpaceOnUse" x1="570.362" y1="541.7385" x2="569.4814" y2="538.6652" gradientTransform="matrix(0.9686 2.722609e-02 0.1493 1.1626 -69.2787 -105.2056)">
			<stop  offset="0" style="stop-color:#044F9D"/>
			<stop  offset="1" style="stop-color:#00509F"/>
		</linearGradient>
		<path class="st19" d="M559.2,541.7l9.5-4c0.5-0.2,0.8-0.9,0.6-1.4l-0.3-0.8c-0.2-0.5-0.9-0.8-1.4-0.6l-9.5,4
			c-0.5,0.2-0.8,0.9-0.6,1.4l0.3,0.8C558,541.7,558.7,542,559.2,541.7z"/>
		
			<linearGradient id="SVGID_42_" gradientUnits="userSpaceOnUse" x1="506.4526" y1="566.3558" x2="506.0594" y2="564.1248" gradientTransform="matrix(1.3722 -0.2149 0.2217 1.3565 -252.1484 -121.5246)">
			<stop  offset="0" style="stop-color:#044F9D"/>
			<stop  offset="1" style="stop-color:#00509F"/>
		</linearGradient>
		<polygon class="st20" points="569.3,537.5 567.7,538.2 566.3,537.1 566.5,535.4 568.1,534.7 569.5,535.8 		"/>
	</g>
	<g>
		
			<linearGradient id="SVGID_43_" gradientUnits="userSpaceOnUse" x1="560.0751" y1="538.9563" x2="560.1985" y2="544.6313" gradientTransform="matrix(1.2033 0.1071 0.2686 1.6163 -227.764 -383.7733)">
			<stop  offset="0" style="stop-color:#78C355"/>
			<stop  offset="0.4609" style="stop-color:#70C15A"/>
			<stop  offset="1" style="stop-color:#6FC15A"/>
		</linearGradient>
		<path class="st21" d="M587.6,556l10.1-4.2c1.1-0.4,1.6-1.7,1.1-2.7l0-0.1c-0.4-1.1-1.7-1.6-2.7-1.1l-10.1,4.2
			c-1.1,0.4-1.6,1.7-1.1,2.7l0,0.1C585.3,556,586.5,556.5,587.6,556z"/>
		
			<linearGradient id="SVGID_44_" gradientUnits="userSpaceOnUse" x1="470.1022" y1="577.3765" x2="469.709" y2="575.1455" gradientTransform="matrix(1.9567 -0.3201 0.3378 1.9152 -527.4092 -399.1661)">
			<stop  offset="0" style="stop-color:#6FC15A"/>
			<stop  offset="1" style="stop-color:#70C15A"/>
		</linearGradient>
		<polygon class="st22" points="588.7,555.6 586.4,556.5 584.4,555 584.7,552.6 587,551.6 589,553.1 		"/>
	</g>
	<g>
		<linearGradient id="SVGID_45_" gradientUnits="userSpaceOnUse" x1="559.194" y1="530.8942" x2="558.4528" y2="528.3072">
			<stop  offset="8.204796e-07" style="stop-color:#00509F"/>
			<stop  offset="1" style="stop-color:#00509F"/>
		</linearGradient>
		<path class="st23" d="M562.4,529.1l-1.3,0.5l-5.2,2.2c-0.1,0-0.2,0.1-0.4,0.1c-0.4,0-0.7-0.2-0.9-0.6c-0.2-0.5,0-1,0.5-1.2
			l5.2-2.1l0,0l1.3-0.5c0.1,0,0.2-0.1,0.4-0.1c0.4,0,0.7,0.2,0.9,0.6C563.1,528.4,562.9,528.9,562.4,529.1z"/>
		<linearGradient id="SVGID_46_" gradientUnits="userSpaceOnUse" x1="561.7214" y1="529.5085" x2="561.1554" y2="527.5329">
			<stop  offset="8.204796e-07" style="stop-color:#00509F"/>
			<stop  offset="1" style="stop-color:#00509F"/>
		</linearGradient>
		<path class="st24" d="M562.4,529.1l-1.3,0.5c-0.1,0-0.2,0.1-0.4,0.1c-0.4,0-0.7-0.2-0.9-0.6c-0.2-0.5,0-1,0.5-1.2l0,0l1.3-0.5
			c0.1,0,0.2-0.1,0.4-0.1c0.4,0,0.7,0.2,0.9,0.6C563.1,528.4,562.9,528.9,562.4,529.1z"/>
	</g>
	<linearGradient id="SVGID_47_" gradientUnits="userSpaceOnUse" x1="583.8684" y1="520.7413" x2="583.1022" y2="518.0674">
		<stop  offset="8.204796e-07" style="stop-color:#7FC452"/>
		<stop  offset="1" style="stop-color:#7EC453"/>
	</linearGradient>
	<path class="st25" d="M587.5,518.6c0,0.1,0,0.1-0.1,0.1l-7.4,3c0.5-0.2,0.7-0.8,0.5-1.2c-0.1-0.4-0.5-0.6-0.9-0.6
		c-0.1,0-0.2,0-0.4,0.1l7.3-3c0.1,0,0.1,0,0.1,0.1L587.5,518.6z"/>
	<path class="st5" d="M536,732.7c0.7-0.6,1.4-1.2,2.1-1.8"/>
</g>
<path class="st5" d="M672,338.7"/>
</svg>
